<?xml version="1.0" standalone="no"?>
<!DOCTYPE svg PUBLIC "-//W3C//DTD SVG 20010904//EN"
 "http://www.w3.org/TR/2001/REC-SVG-20010904/DTD/svg10.dtd">
<svg version="1.0" xmlns="http://www.w3.org/2000/svg"
 width="1600.000000pt" height="1700.000000pt" viewBox="0 0 1600.000000 1700.000000"
 preserveAspectRatio="xMidYMid meet">
<metadata>
Created by potrace 1.15, written by Peter Selinger 2001-2017
</metadata>
<g transform="translate(0.000000,1700.000000) scale(0.100000,-0.100000)"
fill="#000000" stroke="none">
<path d="M7000 13138 c0 -150 15 -261 44 -324 14 -30 27 -54 30 -54 4 0 6 108
6 240 l0 240 -40 0 -40 0 0 -102z"/>
<path d="M7260 13205 l0 -35 83 6 c154 13 172 17 175 42 3 22 2 22 -127 22
l-131 0 0 -35z"/>
<path d="M7960 13217 c0 -23 4 -25 73 -31 39 -4 98 -9 130 -13 l58 -6 -3 34
-3 34 -127 3 -128 3 0 -24z"/>
<path d="M8400 13005 c0 -129 2 -235 5 -235 2 0 14 19 25 43 28 56 40 146 40
300 l0 127 -35 0 -35 0 0 -235z"/>
<path d="M7335 13045 c-30 -30 -32 -64 -4 -99 42 -54 129 -23 129 47 0 70 -76
102 -125 52z"/>
<path d="M8052 13063 c-21 -8 -43 -61 -36 -88 14 -58 97 -75 134 -28 50 64
-20 148 -98 116z"/>
<path d="M7290 10215 l0 -125 -27 0 c-49 0 -267 -20 -285 -26 -32 -10 -19 -31
26 -43 34 -8 75 -8 178 4 73 8 141 15 151 15 15 0 17 14 17 145 l0 145 368 3
367 2 -397 3 -398 2 0 -125z"/>
<path d="M8125 10313 c2 -16 4 -83 4 -150 l1 -122 58 -6 c175 -19 233 -25 290
-29 l62 -5 -1 52 c-1 31 -4 44 -7 32 -7 -20 -9 -20 -177 -5 l-170 15 0 123 0
122 -32 0 c-29 0 -31 -3 -28 -27z"/>
<path d="M7289 9883 c-6 -6 -13 -43 -16 -82 -5 -65 -8 -71 -29 -71 -26 0 -30
-17 -39 -175 -3 -55 -9 -113 -11 -128 -5 -23 2 -36 43 -78 26 -28 66 -72 88
-99 22 -26 51 -51 63 -54 30 -9 505 -6 537 2 l25 7 -41 48 c-39 46 -41 49 -23
62 11 8 22 15 25 15 7 0 102 -108 107 -121 8 -21 20 -6 20 25 0 18 5 43 12 55
15 30 69 61 104 61 27 0 28 -1 21 -37 -6 -35 -5 -37 10 -22 12 11 17 36 18 79
2 58 4 64 38 94 l37 31 -10 125 c-5 69 -12 157 -16 195 l-7 70 -473 5 c-353 4
-476 2 -483 -7z"/>
<path d="M4210 8380 c-507 -62 -990 -296 -1343 -653 -328 -332 -546 -752 -627
-1209 -31 -172 -38 -494 -16 -666 l16 -123 -83 -82 c-359 -356 -416 -890 -140
-1315 185 -286 512 -462 858 -462 217 0 403 55 578 171 l57 38 68 -30 c97 -44
282 -104 392 -128 358 -77 781 -67 1099 25 l55 16 -45 15 c-109 36 -399 192
-451 243 -8 8 -29 26 -46 39 -17 13 -29 28 -25 34 3 6 1 7 -5 3 -14 -8 -68 40
-173 155 -73 80 -79 90 -69 111 10 21 10 22 -4 5 -13 -17 -19 -11 -81 84 -75
114 -134 222 -159 289 -15 41 -23 48 -85 76 l-69 31 -12 59 c-35 180 -115 348
-225 473 -84 96 -195 183 -310 242 -44 23 -82 43 -83 45 -14 11 -33 224 -28
315 28 545 393 992 920 1128 236 61 511 45 735 -45 51 -20 69 -23 85 -15 27
14 191 71 236 83 282 71 579 76 846 13 110 -26 266 -76 328 -106 22 -10 41
-17 43 -15 7 7 -89 158 -158 251 -353 474 -843 775 -1439 887 -121 22 -512 33
-640 18z"/>
<path d="M9565 8379 c-141 -17 -324 -58 -462 -105 -129 -43 -350 -143 -440
-199 l-43 -27 -1 98 c-1 91 -15 228 -18 177 -1 -21 -5 -21 -121 -21 -67 0
-122 -1 -124 -3 -3 -4 2 -95 34 -599 5 -85 13 -233 16 -327 8 -195 2 -181 102
-234 131 -70 151 -86 156 -122 3 -18 8 -122 11 -232 3 -109 8 -201 10 -203 3
-3 13 15 23 39 51 119 146 257 250 362 232 238 532 361 872 360 339 -1 621
-121 865 -367 82 -84 127 -144 200 -272 l42 -74 19 23 c11 12 39 47 61 77 63
85 131 152 144 144 8 -4 9 -3 5 4 -7 12 110 129 126 124 4 -1 8 3 8 9 0 6 7 9
15 5 8 -3 14 0 12 6 -3 15 165 129 181 123 7 -3 10 0 7 5 -7 11 153 93 217
112 21 6 38 15 38 19 0 14 -128 199 -193 279 -168 208 -387 394 -627 532 -228
131 -478 222 -740 268 -143 26 -503 36 -645 19z"/>
<path d="M6852 8008 c-25 -591 -32 -745 -37 -856 l-5 -113 20 19 c12 11 62 41
113 67 51 26 97 53 103 59 7 7 16 88 23 206 7 107 18 294 26 415 8 121 17 282
21 358 l6 137 -129 0 -129 0 -12 -292z"/>
<path d="M7867 7273 c-120 -212 -203 -428 -260 -673 -27 -118 -45 -619 -28
-765 30 -250 119 -532 238 -755 55 -102 101 -180 114 -190 4 -3 9 -14 12 -25
4 -11 4 -2 2 20 -6 54 -22 495 -30 840 -3 154 -10 408 -15 565 -13 391 -25
874 -24 938 1 51 -1 60 -9 45z"/>
<path d="M5600 6775 c-8 -2 -55 -9 -105 -15 -49 -7 -106 -20 -125 -30 -19 -10
-55 -20 -80 -24 -25 -4 -56 -15 -69 -25 -20 -16 -22 -21 -11 -41 10 -18 9 -21
-1 -15 -9 6 -11 3 -6 -8 10 -27 -10 -29 -27 -2 -9 14 -22 25 -29 25 -14 0 -41
-39 -33 -48 3 -3 6 1 6 8 0 7 2 11 5 8 7 -6 -20 -70 -28 -66 -3 2 -9 0 -13 -4
-4 -5 -2 -8 5 -8 20 0 4 -16 -34 -34 -38 -18 -44 -30 -19 -40 12 -5 14 -14 10
-34 -5 -19 -4 -23 3 -12 6 8 13 11 16 8 4 -4 1 -13 -6 -21 -11 -12 -20 -6 -55
37 -23 28 -41 53 -39 56 8 13 -35 8 -46 -6 -6 -8 -16 -14 -22 -14 -5 0 -2 9 8
20 15 17 16 23 5 33 -10 9 -11 9 -6 -1 4 -6 1 -19 -7 -27 -13 -12 -17 -11 -33
7 -15 17 -15 20 -4 16 11 -4 16 0 17 12 2 17 0 18 -18 2 -10 -9 -19 -17 -19
-19 0 -1 11 -13 25 -27 14 -14 22 -31 19 -40 -4 -11 3 -17 23 -21 15 -4 33 -8
40 -10 7 -3 10 3 7 13 -4 13 -3 13 7 -2 10 -16 9 -22 -7 -33 -25 -18 -70 -13
-66 7 2 8 0 12 -3 8 -4 -4 -21 0 -38 8 -27 15 -29 15 -24 0 3 -8 2 -18 -3 -21
-16 -10 -11 -37 11 -62 18 -19 20 -25 9 -38 -11 -13 -15 -12 -37 11 -30 33
-43 20 -36 -36 4 -31 1 -40 -18 -53 -18 -13 -25 -14 -31 -4 -6 9 -8 9 -8 0 0
-7 -7 -13 -15 -13 -10 0 -15 10 -15 30 0 17 -4 30 -9 30 -5 0 -5 -15 -2 -32 5
-25 1 -46 -20 -88 -37 -76 -85 -231 -100 -326 -7 -43 -13 -137 -13 -209 1
-108 5 -149 28 -240 41 -161 82 -255 169 -385 54 -80 93 -127 145 -174 24 -22
29 -32 20 -38 -10 -7 -9 -8 2 -6 9 2 34 -11 55 -28 155 -122 345 -208 530
-240 157 -27 369 -15 534 30 30 8 59 12 64 9 6 -4 7 -1 2 7 -5 9 0 11 21 8 16
-3 23 -3 15 0 -8 2 33 28 90 58 57 30 106 58 109 62 3 4 30 24 61 44 89 59
233 221 295 333 64 116 61 100 68 296 3 101 11 294 17 429 l11 245 -45 97
c-80 172 -194 313 -344 428 -34 26 -60 50 -58 54 3 3 2 4 -1 2 -3 -3 -43 15
-89 40 -163 88 -316 129 -520 138 -55 3 -107 3 -115 1z m315 -223 c101 -29
152 -48 224 -88 251 -138 433 -393 482 -678 19 -110 7 -312 -25 -419 -99 -333
-355 -576 -696 -663 -57 -15 -109 -19 -220 -18 -172 0 -261 20 -404 87 -307
147 -504 429 -539 773 -23 233 45 466 193 662 69 92 127 147 220 207 128 83
257 135 383 156 86 13 303 3 382 -19z"/>
<path d="M12295 6773 c-142 -12 -270 -46 -400 -107 -81 -39 -184 -102 -210
-130 -5 -6 -30 -26 -55 -45 -77 -59 -202 -213 -252 -311 -13 -25 -27 -48 -31
-51 -5 -3 -9 -10 -9 -15 0 -5 -6 -24 -14 -43 -8 -19 -21 -60 -30 -90 -8 -31
-19 -63 -23 -71 -5 -9 -12 -48 -16 -88 -4 -40 -12 -72 -17 -72 -6 0 -35 16
-65 36 -47 31 -117 64 -233 110 -82 32 -176 47 -300 47 -276 -1 -463 -62 -675
-223 -210 -158 -357 -415 -386 -676 -6 -55 -12 -101 -15 -103 -2 -2 -49 11
-105 28 -120 38 -265 112 -359 181 -97 72 -232 217 -298 319 -31 49 -63 98
-69 108 -11 15 -12 5 -8 -57 10 -174 28 -690 23 -695 -2 -3 -177 -7 -389 -10
-211 -4 -399 -8 -416 -11 -41 -6 -40 15 -11 -321 l22 -263 28 0 28 0 0 -160 0
-160 598 2 597 3 3 23 c3 17 8 22 20 17 85 -33 459 -86 471 -67 14 22 80 43
101 32 29 -16 24 -19 -17 -13 -28 5 -34 3 -28 -7 6 -10 3 -12 -13 -8 -12 4
-25 1 -28 -4 -11 -17 354 -4 478 17 104 18 109 18 180 0 46 -11 124 -20 208
-23 215 -6 387 38 570 147 95 57 242 186 300 264 47 63 140 233 140 257 0 6 9
36 20 68 11 31 23 73 26 92 3 19 8 37 10 39 2 2 22 -10 44 -28 52 -42 191
-121 260 -149 168 -67 290 -87 487 -79 237 9 423 69 602 195 45 32 65 41 71
32 5 -9 9 -9 14 -1 4 6 2 11 -5 11 -6 0 30 42 80 92 50 51 108 117 129 148 20
30 40 57 43 60 14 12 93 187 111 248 74 248 75 458 4 704 -36 124 -125 291
-199 375 -11 12 -16 27 -12 34 5 8 4 10 -3 5 -7 -4 -27 11 -49 34 -39 44 -192
170 -205 170 -4 0 -8 -7 -8 -15 0 -18 -16 -20 -27 -2 -8 12 -9 17 -12 37 -2
16 -63 50 -90 50 -45 0 -67 -63 -36 -106 8 -12 11 -25 7 -28 -4 -4 5 -5 19 -1
16 4 30 2 33 -4 4 -6 13 -11 19 -11 7 0 6 4 -3 10 -12 8 -13 10 -1 10 8 0 23
8 33 17 13 12 22 13 29 6 16 -16 4 -30 -43 -54 l-40 -21 33 -35 c25 -26 28
-32 12 -24 -12 6 -25 16 -28 21 -3 6 -11 10 -16 10 -5 0 16 -21 48 -46 185
-148 303 -322 360 -532 24 -85 27 -116 27 -242 0 -149 -10 -205 -55 -328 -144
-394 -525 -644 -943 -619 -240 14 -446 107 -617 276 l-76 76 -22 99 c-28 120
-74 231 -135 324 l-46 69 0 104 c1 590 536 1038 1115 934 94 -17 105 -18 85
-5 -11 7 -12 12 -4 20 9 9 16 6 28 -11 13 -19 19 -21 40 -11 23 10 36 7 36
-10 0 -4 -10 -8 -22 -9 -15 0 11 -17 67 -44 52 -26 93 -41 98 -36 12 12 0 31
-16 25 -15 -5 -63 55 -59 75 2 7 -1 10 -7 6 -20 -12 -12 59 10 90 12 17 19 22
15 13 -3 -10 -1 -18 4 -18 19 0 10 30 -13 44 -34 23 -200 64 -302 76 -87 10
-137 10 -220 3z"/>
<path d="M6761 4863 c-1 -12 -4 -23 -8 -26 -5 -2 -2 -2 5 -1 6 2 12 -1 12 -6
0 -10 -19 -14 -58 -10 l-23 1 1 -314 1 -315 25 12 c13 8 34 13 47 12 22 -1 22
-3 25 -158 l3 -158 599 0 600 0 0 48 0 47 -290 105 c-159 58 -290 108 -290
113 0 4 25 7 55 7 46 0 55 3 55 18 1 9 3 40 5 67 6 72 24 360 27 426 1 30 -2
60 -6 67 -5 8 -81 11 -276 9 -264 -2 -270 -2 -270 18 0 17 -2 17 -10 5 -6 -10
-10 -11 -10 -2 0 6 -8 12 -17 12 -15 0 -16 -2 -3 -10 18 -12 16 -12 -85 -15
-86 -3 -93 -1 -104 39 -7 23 -9 26 -10 9z"/>
<path d="M0 500 l0 -500 8000 0 8000 0 0 500 0 500 -8000 0 -8000 0 0 -500z
m776 263 c36 -12 67 -34 117 -85 l67 -69 0 -132 c0 -120 -2 -135 -20 -155 -12
-12 -28 -22 -37 -22 -9 0 -37 -13 -62 -29 -59 -38 -129 -55 -195 -48 -209 21
-319 275 -192 442 78 102 200 140 322 98z m464 -150 c1 -65 3 -83 11 -70 14
23 62 47 96 47 28 0 93 -33 93 -47 0 -4 -26 -34 -57 -66 -56 -57 -57 -59 -28
-55 17 3 38 9 48 13 16 7 18 3 15 -26 -3 -30 -8 -35 -39 -43 -49 -12 -86 -1
-120 35 -27 29 -28 29 -39 10 -6 -12 -24 -28 -40 -36 -82 -42 -170 14 -170
111 0 28 8 44 35 71 33 33 39 35 85 31 l50 -5 0 58 c0 59 0 59 30 59 l30 0 0
-87z m1320 28 l0 -59 39 5 c33 5 41 2 55 -19 13 -20 76 -190 76 -206 0 -2 -14
-2 -31 0 -28 3 -32 8 -57 83 -20 58 -32 81 -46 83 -28 6 -36 -15 -36 -95 l0
-73 -30 0 c-26 0 -30 4 -30 26 l0 26 -32 -27 c-26 -22 -39 -26 -82 -24 l-51 3
-3 -42 c-3 -39 -5 -42 -33 -42 l-29 0 0 110 c0 125 11 160 60 185 53 28 134
11 159 -32 8 -13 10 5 11 70 l0 87 30 0 c30 0 30 0 30 -59z m460 -11 c0 -25 4
-30 25 -30 21 0 25 -5 25 -32 l0 -31 24 22 c16 15 42 25 70 28 42 5 48 3 81
-30 20 -20 35 -29 35 -21 0 24 39 54 69 54 16 0 39 -9 52 -19 24 -19 24 -19 5
-40 -13 -15 -23 -18 -30 -11 -5 5 -16 10 -23 10 -24 0 -14 -17 17 -30 55 -23
66 -75 25 -115 -29 -30 -74 -33 -106 -6 -24 19 -24 19 -5 40 13 15 23 18 30
11 13 -13 46 -13 46 0 0 5 -15 17 -32 26 -18 9 -36 22 -40 28 -4 6 -8 0 -8
-14 0 -36 -35 -89 -68 -101 -37 -14 -90 -4 -118 22 l-24 22 0 -26 c0 -24 -4
-27 -33 -27 -18 0 -43 7 -55 16 -19 13 -22 24 -22 85 0 39 -4 69 -10 69 -5 0
-10 16 -10 35 0 19 5 35 10 35 6 0 10 8 10 18 0 16 29 39 53 41 4 1 7 -12 7
-29z m-810 -10 c0 -25 4 -30 25 -30 21 0 25 -5 25 -30 0 -25 -4 -30 -25 -30
-24 0 -25 -3 -25 -55 0 -54 4 -60 38 -56 7 1 12 -10 12 -29 0 -27 -3 -30 -34
-30 -19 0 -44 8 -56 18 -19 16 -22 27 -21 80 0 33 -3 64 -9 67 -13 8 -13 65 0
65 6 0 10 9 10 20 0 12 10 24 23 30 34 14 37 12 37 -20z m-605 -40 c14 -5 34
-23 43 -40 20 -35 28 -37 37 -9 9 26 62 59 98 59 62 0 117 -54 117 -115 0 -61
-55 -115 -117 -115 -36 0 -89 33 -98 59 -7 24 -25 28 -25 7 0 -8 -14 -26 -32
-41 -28 -23 -39 -27 -80 -23 l-48 5 0 -43 c0 -42 -1 -44 -30 -44 l-30 0 0 109
c0 128 7 150 52 179 36 24 72 27 113 12z m425 -10 l20 -20 0 20 c0 16 7 20 30
20 l30 0 0 -115 0 -115 -30 0 c-28 0 -30 3 -30 38 l-1 37 -13 -31 c-21 -48
-75 -59 -117 -25 -24 19 -24 19 -5 40 13 15 23 18 30 11 15 -15 36 -12 36 5 0
8 -7 15 -15 15 -25 0 -55 38 -55 70 0 38 32 70 70 70 17 0 39 -9 50 -20z m844
10 c33 -12 66 -66 66 -105 0 -99 -124 -150 -191 -79 -19 21 -24 36 -24 81 0
49 3 58 33 84 34 31 71 37 116 19z m8970 -19 c10 -11 18 -36 18 -56 0 -51 -25
-75 -79 -75 l-43 0 0 75 0 75 43 0 c31 0 49 -6 61 -19z m1613 -51 c8 -44 20
-45 27 -4 9 43 27 40 40 -7 l10 -34 10 38 c12 47 44 52 53 7 8 -44 20 -45 27
-4 9 43 27 40 40 -7 l9 -34 10 38 c12 48 44 52 54 7 8 -44 20 -45 27 -4 9 43
27 40 40 -7 l10 -34 10 38 c5 20 13 37 18 37 11 0 10 -7 -6 -59 -16 -56 -32
-63 -44 -19 -10 33 -11 32 -27 -17 -9 -28 -25 -15 -36 31 -13 49 -23 48 -36
-5 -12 -46 -30 -50 -41 -9 -10 33 -11 32 -27 -17 -9 -28 -25 -15 -36 31 -13
49 -23 48 -36 -5 -12 -46 -28 -49 -40 -9 -10 33 -12 32 -28 -17 -8 -27 -24
-16 -35 26 -6 22 -14 47 -17 55 -3 8 0 14 6 14 6 0 14 -14 18 -30z"/>
<path d="M638 640 c-10 -15 -24 -20 -54 -20 -66 0 -74 -16 -74 -151 0 -76 4
-119 12 -127 8 -8 66 -12 193 -12 227 0 215 -8 215 148 0 131 -6 142 -79 142
-35 0 -53 5 -66 20 -14 16 -31 20 -76 20 -48 0 -61 -4 -71 -20z m126 -60 c32
-12 66 -65 66 -103 0 -117 -162 -160 -215 -57 -51 99 43 201 149 160z"/>
<path d="M685 560 c-61 -24 -79 -101 -33 -146 52 -53 139 -23 154 52 11 57
-65 117 -121 94z"/>
</g>
</svg>
