<?xml version="1.0" standalone="no"?>
<!DOCTYPE svg PUBLIC "-//W3C//DTD SVG 20010904//EN"
 "http://www.w3.org/TR/2001/REC-SVG-20010904/DTD/svg10.dtd">
<svg version="1.0" xmlns="http://www.w3.org/2000/svg"
 width="225.000000pt" height="225.000000pt" viewBox="0 0 225.000000 225.000000"
 preserveAspectRatio="xMidYMid meet">
<metadata>
Created by potrace 1.15, written by Peter Selinger 2001-2017
</metadata>
<g transform="translate(0.000000,225.000000) scale(0.100000,-0.100000)"
fill="#000000" stroke="none">
<path d="M733 2238 c-12 -6 -26 -24 -32 -39 l-10 -29 -266 0 -267 0 -28 -28
c-19 -19 -30 -43 -35 -73 -3 -24 -5 -483 -3 -1019 3 -1072 -1 -1004 64 -1035
46 -22 1513 -22 1615 -1 91 20 162 58 232 125 103 98 148 204 148 348 0 134
-39 236 -130 335 l-51 56 0 601 c0 515 -2 606 -15 631 -31 59 -35 60 -321 60
l-262 0 -11 30 c-6 18 -21 34 -36 40 -36 14 -563 12 -592 -2z m565 -175 l3
-113 -266 0 -265 0 0 115 0 115 263 -2 262 -3 3 -112z m-608 -3 l0 -40 -203 0
c-195 0 -205 -1 -223 -21 -18 -20 -19 -52 -22 -888 -2 -580 0 -878 7 -902 7
-23 20 -40 36 -47 19 -9 167 -12 525 -12 l500 0 44 -32 c25 -18 45 -36 45 -40
1 -13 -1187 -10 -1210 2 -19 10 -19 32 -19 1009 0 549 3 1001 7 1004 3 4 120
7 260 7 l253 0 0 -40z m1198 -552 l2 -587 -32 14 -33 13 -5 515 c-5 488 -6
516 -24 536 -18 20 -28 21 -223 21 l-203 0 0 40 0 40 258 -2 257 -3 3 -587z
m-1188 424 c0 -11 8 -26 18 -36 17 -15 50 -16 318 -14 l299 3 20 32 20 32 188
1 187 0 0 -490 0 -490 -85 0 c-133 0 -230 -38 -327 -128 -152 -141 -197 -364
-112 -551 13 -29 24 -57 24 -62 0 -5 -204 -9 -465 -9 l-465 0 0 865 0 865 190
0 c178 0 190 -1 190 -18z m1117 -1060 c114 -43 214 -151 248 -265 44 -150 -3
-319 -121 -427 -198 -182 -525 -117 -646 128 -28 56 -33 78 -36 157 -3 70 0
106 13 146 45 137 147 235 285 275 62 18 192 11 257 -14z"/>
<path d="M795 1704 c-18 -9 -62 -60 -110 -127 l-80 -112 -62 -5 c-47 -4 -68
-11 -85 -28 -21 -21 -23 -31 -23 -138 0 -114 0 -116 28 -140 20 -17 40 -24 71
-24 38 0 45 -4 67 -37 37 -57 71 -77 129 -77 58 0 92 20 129 77 l24 37 154 0
c128 0 153 -2 153 -15 0 -8 14 -30 31 -50 72 -82 195 -61 248 43 10 18 20 22
59 22 85 1 102 31 102 175 0 99 -2 107 -25 130 -20 21 -34 25 -84 25 l-60 0
-85 118 c-47 67 -96 123 -111 130 -41 19 -431 16 -470 -4z m195 -149 l0 -95
-145 0 c-90 0 -145 4 -145 10 0 9 36 64 97 148 24 32 25 32 109 32 l84 0 0
-95z m246 87 c15 -9 124 -163 124 -173 0 -5 -65 -9 -145 -9 l-145 0 0 95 0 95
78 0 c42 0 82 -4 88 -8z m319 -347 l0 -90 -40 -3 c-36 -2 -41 1 -55 30 -46
101 -201 103 -255 5 l-20 -37 -153 0 c-151 0 -153 0 -161 23 -12 30 -65 75
-97 83 -67 17 -151 -19 -174 -76 -10 -24 -18 -30 -44 -30 -18 0 -37 5 -44 12
-12 12 -17 134 -6 162 6 15 59 16 528 14 l521 -3 0 -90z m-792 -66 c24 -11 47
-47 47 -73 0 -7 -9 -25 -21 -40 -26 -33 -79 -36 -109 -6 -30 30 -27 83 6 109
30 24 43 26 77 10z m600 0 c24 -11 47 -47 47 -73 0 -7 -9 -25 -21 -40 -26 -33
-79 -36 -109 -6 -30 30 -27 83 6 109 30 24 43 26 77 10z"/>
<path d="M435 800 c-15 -48 -3 -50 315 -50 318 0 330 2 315 50 -6 20 -13 20
-315 20 -302 0 -309 0 -315 -20z"/>
<path d="M446 624 c-9 -8 -16 -19 -16 -24 0 -5 7 -16 16 -24 13 -14 55 -16
304 -16 249 0 291 2 304 16 21 21 20 41 -3 54 -12 6 -127 10 -305 10 -245 0
-287 -2 -300 -16z"/>
<path d="M440 435 c-6 -8 -9 -23 -5 -35 6 -20 13 -20 315 -20 302 0 309 0 315
20 15 48 3 50 -315 50 -248 0 -300 -2 -310 -15z"/>
<path d="M1642 738 c-8 -8 -12 -48 -12 -115 l0 -102 -107 -3 c-105 -3 -108 -4
-111 -27 -2 -13 2 -28 10 -32 7 -5 57 -9 111 -9 l97 0 0 -94 c0 -111 4 -126
36 -126 36 0 46 31 42 131 l-3 89 101 0 c107 0 130 9 122 47 -3 16 -17 18
-111 21 l-107 3 0 95 c0 52 -5 104 -10 115 -12 21 -40 25 -58 7z"/>
</g>
</svg>
