<?xml version="1.0" ?><!DOCTYPE svg  PUBLIC '-//W3C//DTD SVG 1.1//EN'  'http://www.w3.org/Graphics/SVG/1.1/DTD/svg11.dtd'><svg enable-background="new 0 0 300 300" height="300px" id="Layer_1" version="1.1" viewBox="0 0 300 300" width="300px" xml:space="preserve" xmlns="http://www.w3.org/2000/svg" xmlns:xlink="http://www.w3.org/1999/xlink"><g><path d="   M225.646,137H75.726C59.033,137,44,149.269,44,165.962v43.525c0,2.003,3.124,4.513,5.127,4.513h203.118   c2.004,0,2.755-2.51,2.755-4.513v-43.525C255,149.269,242.339,137,225.646,137z" fill="none" stroke="#000000" stroke-linecap="round" stroke-linejoin="round" stroke-miterlimit="10" stroke-width="6"/><path d="   M255,176.627c0-2.003-1.624-3.627-3.627-3.627H47.627c-2.003,0-3.627,1.624-3.627,3.627v33.746c0,2.003,1.624,3.627,3.627,3.627   h203.746c2.003,0,3.627-1.624,3.627-3.627V176.627z" fill="none" stroke="#000000" stroke-linecap="round" stroke-linejoin="round" stroke-miterlimit="10" stroke-width="6"/><path d="   M237,126V71.657c0-2.003-0.887-2.657-2.891-2.657H67.263C65.26,69,63,69.654,63,71.657V126" fill="none" stroke="#000000" stroke-linecap="round" stroke-linejoin="round" stroke-miterlimit="10" stroke-width="6"/><line fill="none" stroke="#000000" stroke-linecap="round" stroke-linejoin="round" stroke-miterlimit="10" stroke-width="6" x1="44" x2="44" y1="195" y2="231"/><line fill="none" stroke="#000000" stroke-linecap="round" stroke-linejoin="round" stroke-miterlimit="10" stroke-width="6" x1="255" x2="255" y1="195" y2="231"/><path d="   M199.539,125.908c0-8.987,1.927-18.451,1.927-18.451c0-1.595-1.294-3.046-2.89-3.046c0,0-8.986,1.846-17.812,1.846   c-8.826,0-18.774-1.965-18.774-1.965c-1.597,0-2.891,1.273-2.891,2.869c0,0,1.927,9.128,1.927,18.757" fill="none" stroke="#000000" stroke-linecap="round" stroke-linejoin="round" stroke-miterlimit="10" stroke-width="6"/><path d="   M140.346,125.908c0-8.987,1.926-18.451,1.926-18.451c0-1.595-1.294-3.046-2.889-3.046c0,0-8.987,1.846-17.812,1.846   c-8.827,0-18.775-1.965-18.775-1.965c-1.597,0-2.889,1.273-2.889,2.869c0,0,1.925,9.128,1.925,18.757" fill="none" stroke="#000000" stroke-linecap="round" stroke-linejoin="round" stroke-miterlimit="10" stroke-width="6"/></g></svg>