<?xml version="1.0" standalone="no"?>
<!DOCTYPE svg PUBLIC "-//W3C//DTD SVG 20010904//EN"
 "http://www.w3.org/TR/2001/REC-SVG-20010904/DTD/svg10.dtd">
<svg version="1.0" xmlns="http://www.w3.org/2000/svg"
 width="1280.000000pt" height="992.000000pt" viewBox="0 0 1280.000000 992.000000"
 preserveAspectRatio="xMidYMid meet">
<g transform="translate(0.000000,992.000000) scale(0.100000,-0.100000)"
fill="#000000" stroke="none">
<path d="M12407 9900 c-10 -15 -12 -33 -6 -67 10 -60 11 -307 2 -487 l-6 -138
-64 4 c-42 3 -68 9 -74 19 -5 7 -9 118 -9 244 0 311 -8 425 -29 425 -29 -1
-63 -26 -93 -71 l-29 -44 2 -568 c1 -312 -1 -570 -4 -573 -10 -10 -18 392 -15
796 2 324 0 420 -10 438 -17 29 -28 28 -49 -5 -15 -23 -18 -47 -16 -160 1 -73
-2 -133 -7 -133 -4 0 -30 25 -57 57 -33 39 -65 64 -102 80 -30 13 -55 32 -58
42 -9 37 -237 88 -283 64 -17 -8 -57 -12 -120 -10 l-95 4 -14 40 c-14 40 -16
41 -70 46 -37 3 -63 0 -77 -8 -14 -9 -26 -10 -37 -3 -24 13 -69 2 -96 -24
l-22 -20 22 -24 c27 -29 36 -30 61 -7 17 15 20 15 28 3 14 -22 13 -24 -25 -59
-19 -17 -35 -39 -35 -49 0 -27 -47 -90 -81 -107 l-30 -16 6 35 c4 21 0 56 -10
93 -9 32 -17 79 -17 105 0 45 -2 48 -32 53 -17 4 -60 5 -95 3 -61 -3 -66 -5
-84 -35 -10 -18 -21 -56 -24 -86 -5 -50 -3 -55 22 -75 15 -12 36 -22 46 -22
11 0 19 -7 19 -14 0 -8 16 -27 35 -42 42 -31 46 -64 11 -91 -28 -22 -99 -135
-134 -213 -18 -40 -26 -79 -30 -144 -5 -85 -7 -93 -51 -163 -32 -52 -50 -71
-61 -67 -8 3 -49 15 -92 26 -62 17 -78 26 -88 46 -6 14 -24 42 -40 61 l-28 36
-2 205 c0 113 1 282 3 375 2 94 0 180 -5 193 -6 19 -15 22 -60 22 -56 0 -124
-15 -132 -29 -3 -5 -1 -129 6 -277 6 -148 8 -304 4 -347 l-8 -77 -20 25 c-18
23 -25 25 -116 26 -53 1 -143 4 -200 8 l-103 6 1 343 c0 330 0 342 -19 342
-10 0 -24 -7 -32 -16 -8 -9 -21 -13 -35 -10 -13 4 -24 1 -27 -7 -2 -7 -3 -300
-2 -652 l3 -640 -51 5 -50 5 2 315 c1 173 6 461 11 640 5 178 7 327 4 329 -3
3 -13 0 -22 -5 -15 -10 -18 -47 -24 -360 -3 -192 -8 -589 -11 -882 -3 -294 -8
-536 -10 -538 -2 -3 -91 -2 -196 2 l-193 7 5 521 c3 287 8 531 12 544 7 21 10
22 74 15 102 -12 217 -9 236 7 29 24 -3 30 -161 30 l-151 0 -6 288 c-3 158
-10 303 -14 322 -7 30 -13 35 -40 38 -30 3 -32 1 -39 -35 -4 -21 -8 -164 -8
-318 -1 -154 -4 -284 -8 -290 -4 -6 -90 -9 -233 -7 l-227 3 3 315 c3 270 2
316 -11 324 -32 20 -35 -9 -31 -273 1 -144 0 -287 -4 -317 l-7 -56 -71 8 c-40
4 -151 7 -248 7 -97 1 -198 4 -224 8 l-47 6 7 276 c7 302 1 368 -30 363 -47
-8 -47 -2 -45 -612 1 -316 2 -639 1 -717 l-1 -143 -73 45 c-41 24 -78 55 -84
68 -17 36 3 1286 21 1339 8 21 11 40 7 42 -14 9 -61 -7 -66 -23 -3 -10 -8
-260 -11 -557 -8 -678 -8 -651 -4 -701 3 -24 0 -47 -5 -52 -10 -9 -201 98
-257 144 l-25 20 7 550 c3 303 2 561 -3 575 l-9 25 -18 -22 c-17 -21 -18 -43
-13 -330 l6 -308 -473 2 c-260 2 -475 4 -477 6 -2 2 1 132 6 288 10 294 7 321
-29 299 -16 -10 -23 -161 -21 -447 l1 -143 -133 0 c-74 0 -147 -5 -164 -10
-24 -9 -55 -4 -167 24 -137 35 -284 59 -446 73 l-85 8 0 277 c0 292 -4 316
-43 292 -16 -10 -17 -34 -13 -283 l4 -272 -24 5 c-152 34 -447 52 -644 39 -82
-5 -152 -7 -155 -5 -3 2 -4 118 -2 257 3 252 2 253 -18 248 -30 -8 -43 -40
-36 -92 3 -25 6 -131 7 -236 l2 -190 -79 -7 c-106 -9 -192 -32 -291 -78 -89
-42 -263 -156 -263 -173 0 -6 -44 -54 -97 -108 -53 -54 -109 -119 -124 -145
-14 -26 -36 -51 -48 -55 -21 -8 -21 -8 -21 164 0 95 3 181 6 192 5 20 13 21
158 20 121 0 157 3 171 15 17 14 14 15 -36 21 -30 4 -106 4 -170 1 l-117 -5
-7 89 c-4 49 -5 186 -2 305 5 212 1 249 -27 249 -19 0 -31 -436 -15 -534 18
-109 22 -106 -131 -106 -111 0 -130 2 -130 16 0 8 12 61 26 117 14 56 36 155
50 222 13 66 34 149 45 184 23 67 28 136 13 151 -5 5 -27 4 -51 -3 l-42 -11
-25 -105 c-14 -58 -43 -185 -65 -281 -21 -96 -47 -200 -58 -230 l-18 -55 -91
-3 c-50 -1 -107 1 -128 5 l-37 8 0 315 c1 291 -1 317 -18 337 -27 33 -53 33
-69 0 -12 -24 -12 -74 -2 -310 7 -183 9 -440 4 -733 l-7 -450 -61 4 c-109 8
-98 -77 -95 737 2 653 1 716 -15 739 -9 15 -21 26 -27 26 -7 0 -8 -235 -3
-758 l7 -758 -144 12 c-79 7 -152 13 -161 13 -17 1 -18 43 -18 739 0 641 -2
741 -15 758 -15 19 -15 19 -31 -1 -9 -12 -13 -30 -10 -45 3 -14 9 -161 12
-327 l7 -303 -64 -1 c-87 -2 -183 2 -189 7 -2 3 10 64 28 137 18 73 41 182 52
242 11 61 28 137 40 169 24 72 26 124 4 133 -9 3 -31 -2 -50 -11 -40 -19 -57
-52 -74 -146 -6 -36 -22 -108 -35 -160 -13 -52 -35 -148 -49 -214 -14 -65 -32
-128 -40 -140 -14 -21 -18 -22 -88 -14 -40 5 -177 8 -304 6 l-231 -3 -7 89
c-3 49 -6 180 -6 292 l0 203 27 3 c34 4 38 32 6 36 -14 2 -23 10 -23 21 0 39
-33 34 -54 -8 -10 -20 -12 -49 -5 -126 4 -55 8 -194 9 -309 l0 -208 -447 3
c-338 3 -447 1 -450 -8 -9 -25 70 -32 301 -26 127 3 315 2 419 -2 l187 -7 -2
-402 c-2 -220 1 -448 5 -506 l8 -105 -98 -42 c-300 -130 -812 -508 -881 -650
-22 -46 -8 -52 31 -15 18 18 38 32 43 32 6 0 19 18 30 40 20 42 153 156 329
282 269 193 559 337 842 420 62 17 115 30 118 26 5 -5 -18 -127 -30 -160 -4
-10 -22 -20 -43 -23 -175 -28 -347 -82 -502 -160 -136 -68 -430 -267 -524
-355 -45 -41 -104 -90 -132 -108 -45 -29 -58 -45 -103 -132 -28 -55 -51 -105
-51 -111 0 -5 11 -20 24 -33 20 -21 30 -23 87 -20 84 6 222 -38 227 -72 3 -19
0 -20 -40 -13 -24 4 -72 17 -106 28 -69 23 -102 26 -102 11 0 -15 32 -28 102
-40 41 -7 73 -19 84 -31 27 -30 8 -35 -64 -15 -37 10 -83 21 -102 24 -35 5
-35 4 -16 -16 11 -13 37 -24 65 -28 51 -7 95 -30 86 -44 -9 -15 -45 -12 -100
9 -52 19 -75 18 -75 -4 0 -16 22 -25 60 -25 27 0 59 -25 46 -37 -3 -4 -29 -1
-57 5 -65 15 -69 15 -69 -3 0 -8 12 -17 28 -20 57 -12 77 -21 80 -38 4 -21
-23 -22 -58 -2 -14 8 -35 14 -47 15 -43 0 -21 -33 30 -45 41 -11 36 -41 -9
-52 -19 -4 -36 -12 -36 -18 -3 -19 63 -53 115 -60 28 -4 208 -40 398 -81 190
-41 357 -74 371 -74 22 0 58 -26 58 -42 0 -4 -16 -16 -36 -28 l-35 -22 3 -163
c2 -90 -1 -167 -5 -172 -10 -9 -712 -9 -778 1 -42 6 -46 5 -57 -19 -7 -14 -12
-37 -12 -50 l0 -25 203 -1 c111 -1 353 -2 539 -3 185 -1 340 -4 344 -9 4 -4
-6 -22 -23 -40 -17 -17 -47 -57 -67 -89 l-35 -56 -163 -6 c-90 -3 -174 -5
-188 -5 -166 5 -261 8 -400 14 -157 6 -208 0 -186 -22 14 -14 192 -21 572 -22
l372 -1 11 -63 c17 -101 24 -93 -92 -101 -56 -4 -270 -6 -475 -5 -205 1 -375
-1 -378 -3 -3 -3 2 -12 10 -21 13 -13 47 -14 238 -10 176 5 242 2 313 -10 79
-14 99 -14 157 -2 44 10 103 13 170 10 93 -4 103 -7 115 -27 18 -33 16 -56 -7
-63 -40 -13 -22 -63 48 -137 l36 -38 -29 -30 c-16 -17 -58 -49 -94 -72 -84
-53 -131 -97 -131 -121 0 -11 -12 -46 -26 -77 -24 -53 -25 -63 -15 -110 6 -28
11 -74 11 -101 0 -33 6 -60 18 -77 10 -15 27 -47 36 -72 26 -67 54 -109 113
-172 29 -31 53 -66 53 -77 0 -31 134 -224 174 -252 20 -13 36 -30 36 -38 0 -8
10 -25 22 -38 14 -15 24 -43 29 -79 5 -35 19 -75 38 -105 17 -27 29 -49 28
-49 -1 0 -52 12 -112 26 -151 35 -417 44 -585 20 -209 -31 -382 -84 -555 -171
l-120 -60 -3 -79 c-3 -82 12 -126 43 -126 9 0 55 20 103 44 48 24 119 54 157
66 39 13 87 34 107 46 22 14 66 28 110 34 40 6 128 20 196 32 102 17 133 19
175 10 29 -6 120 -15 204 -21 112 -7 164 -15 196 -29 100 -44 52 -62 -89 -34
-315 64 -636 18 -954 -134 -110 -53 -236 -127 -253 -149 -4 -5 -5 -23 -2 -40
3 -16 10 -64 16 -105 5 -41 12 -82 15 -92 9 -32 34 -28 74 13 37 38 137 97
295 173 134 65 312 103 354 77 11 -7 4 -11 -25 -16 -82 -14 -201 -47 -271 -77
-123 -51 -318 -183 -405 -275 -45 -48 -52 -121 -50 -542 2 -360 3 -375 22
-396 11 -12 20 -29 20 -38 0 -14 4 -15 39 -2 22 7 50 20 63 28 56 36 62 33 76
-41 37 -195 185 -371 394 -466 71 -32 78 -34 242 -40 94 -4 171 -8 173 -9 1
-2 -8 -38 -22 -80 -13 -42 -27 -93 -31 -112 -6 -34 -7 -35 -54 -35 -133 0
-362 64 -482 135 -190 113 -336 296 -398 502 -12 40 -29 78 -37 85 -14 11 -15
4 -11 -62 3 -58 11 -90 35 -143 32 -67 100 -164 143 -202 12 -11 33 -36 46
-57 45 -71 222 -187 365 -239 107 -39 259 -71 323 -68 34 2 51 -1 54 -10 11
-34 -80 -41 -206 -15 -154 31 -280 87 -429 190 -87 61 -122 95 -224 223 -43
53 -69 73 -69 53 0 -16 164 -202 217 -248 178 -150 402 -244 586 -244 81 0
117 -11 117 -34 0 -27 -22 -26 -228 4 -130 20 -285 84 -412 170 -100 68 -199
159 -235 215 -34 52 -65 77 -65 51 0 -26 64 -108 133 -171 187 -171 445 -288
661 -301 122 -7 136 -11 136 -34 0 -27 -15 -33 -79 -31 -131 3 -258 41 -457
136 -139 66 -225 128 -321 233 -29 31 -55 54 -58 51 -16 -17 -26 -124 -15
-170 9 -38 9 -69 0 -132 -11 -80 -11 -689 0 -701 3 -2 207 -8 453 -12 414 -7
447 -8 447 -24 0 -10 -7 -23 -15 -30 -8 -7 -15 -18 -15 -24 0 -19 51 -62 105
-89 l49 -25 -27 -13 c-36 -16 -34 -35 5 -59 44 -26 108 -39 241 -46 l113 -7
36 32 c29 25 44 31 83 31 68 0 102 39 143 161 34 104 35 105 116 95 l52 -7 -4
-88 c-4 -87 2 -115 46 -191 5 -8 17 -33 28 -55 14 -30 27 -41 49 -46 54 -12
179 -9 240 6 81 20 114 19 168 -5 45 -20 49 -20 214 -5 179 17 259 32 339 63
27 11 68 23 92 27 45 7 62 26 62 68 0 48 -45 70 -189 93 -136 21 -158 29 -164
62 -3 15 -8 38 -13 51 l-7 24 514 -8 c577 -9 801 -10 874 -6 28 1 199 -2 380
-7 202 -6 464 -7 675 -1 190 4 520 9 735 9 l390 1 6 -23 c10 -38 48 -106 61
-111 7 -2 24 0 38 5 20 8 27 6 35 -8 37 -67 126 -103 218 -89 30 5 60 1 102
-13 66 -22 234 -38 283 -27 24 5 32 12 34 32 2 21 9 27 33 30 52 7 58 19 53
109 l-4 82 50 6 c67 8 211 7 261 -2 l40 -7 1 -90 1 -90 38 -19 c31 -15 67 -20
187 -24 l148 -5 0 -43 0 -44 53 -2 c28 -1 65 -1 81 0 16 2 52 -5 80 -15 42
-14 82 -17 230 -15 98 2 183 5 187 8 15 9 10 83 -7 117 -9 18 -29 48 -44 67
-38 49 -60 95 -60 125 l0 26 243 -6 c133 -4 328 -11 432 -16 105 -6 285 -7
401 -4 135 4 228 2 258 -5 36 -8 52 -8 63 1 11 9 50 9 171 1 86 -7 326 -12
532 -12 206 0 494 -1 640 -3 146 -1 337 0 425 1 88 2 336 1 550 -3 215 -3 445
-3 513 2 l123 8 7 135 c3 74 4 151 3 170 -6 71 -3 547 3 603 l7 57 -48 0 c-26
0 -91 7 -143 16 -81 13 -115 13 -235 3 -256 -22 -743 -13 -716 14 15 15 14 27
-3 27 -8 0 -36 -23 -63 -51 -99 -105 -327 -254 -448 -294 -201 -66 -453 -81
-610 -38 -94 26 -355 132 -380 154 -11 9 -37 24 -58 33 -53 21 -178 137 -245
226 -30 41 -75 100 -98 130 -43 58 -130 279 -154 396 -18 84 -18 237 -1 257
24 29 31 19 31 -43 0 -77 24 -236 49 -321 132 -458 526 -772 1021 -815 89 -7
235 9 340 37 82 23 246 97 343 156 115 69 316 285 317 339 0 6 15 37 34 67 76
127 129 354 129 552 -1 101 -5 133 -27 204 -24 78 -26 121 -7 121 11 0 49
-122 61 -195 23 -139 6 -362 -40 -522 -26 -95 -59 -163 -119 -248 -43 -61 -77
-125 -66 -125 2 0 22 15 44 34 55 46 97 51 300 36 91 -6 294 -12 449 -13 l284
-2 19 24 c19 24 25 91 13 139 l-7 23 -261 0 c-266 0 -569 11 -618 24 -83 21 3
25 422 21 l450 -6 6 26 c8 31 11 230 4 238 -3 2 -26 0 -50 -6 -52 -12 -204 -5
-272 12 -46 12 -46 13 -53 61 -8 57 0 103 22 121 11 9 66 14 184 18 92 3 172
10 178 15 32 34 50 448 29 655 -13 122 -14 125 -37 125 -26 0 -25 -2 -56 113
l-14 53 39 61 39 62 -19 32 c-11 17 -20 43 -20 58 0 15 -4 25 -9 21 -12 -7
-31 26 -31 53 0 14 -13 24 -45 36 -41 16 -44 20 -39 46 6 27 4 29 -37 37 -37
7 -44 13 -47 35 -2 18 -11 28 -27 32 -14 4 -35 20 -47 36 -12 17 -26 30 -30
30 -5 0 -26 11 -46 25 -20 14 -45 25 -55 25 -10 0 -20 7 -23 15 -7 18 -47 20
-76 4 -11 -6 -22 -9 -24 -7 -2 3 6 31 17 64 12 32 26 101 32 151 l11 93 85
-46 c122 -66 226 -138 303 -211 68 -64 108 -80 108 -44 0 48 -337 280 -476
328 -26 9 -35 20 -49 65 -47 142 -121 238 -183 238 -67 0 -246 -32 -284 -50
-28 -13 -40 -15 -43 -7 -2 7 -13 45 -25 85 -44 153 -129 279 -207 308 -27 9
-64 24 -83 31 l-35 15 36 18 c87 45 118 116 85 195 -41 98 -210 102 -273 6
-26 -38 -29 -69 -11 -118 6 -18 10 -35 7 -37 -3 -3 -51 2 -108 10 -81 12 -109
13 -131 4 -16 -7 -34 -9 -40 -5 -8 5 -10 -6 -8 -37 l3 -43 62 -10 62 -10 -89
-82 c-118 -110 -153 -176 -148 -280 l2 -72 -39 -29 c-82 -60 -136 -134 -218
-298 l-46 -91 -68 -6 c-37 -4 -95 -15 -128 -26 l-60 -19 -17 32 c-9 17 -17 40
-18 52 0 11 -16 36 -36 55 -19 18 -48 55 -64 80 l-30 45 -57 -4 c-32 -2 -69 0
-82 5 -14 6 -47 6 -79 1 -53 -8 -122 3 -122 21 0 4 17 12 37 17 34 8 39 14 51
58 11 37 11 55 3 74 -11 23 -15 24 -71 18 -66 -8 -100 4 -100 33 0 17 12 19
141 23 158 4 166 8 189 86 15 51 24 180 16 233 -7 51 8 46 -199 55 -118 5
-128 7 -122 23 8 27 -11 70 -54 121 -57 68 -64 87 -63 166 0 61 8 90 47 191
26 65 52 145 57 179 10 60 10 62 -27 128 -20 37 -35 69 -32 72 2 3 594 1 1313
-5 1436 -11 1790 -9 1808 9 8 8 7 13 -2 19 -7 4 -726 10 -1598 14 l-1586 6
-68 41 c-45 27 -84 43 -119 47 -63 7 -182 -11 -283 -44 -74 -24 -134 -63 -110
-71 6 -2 69 14 139 34 133 39 203 46 297 31 44 -8 50 -12 65 -48 11 -28 22
-39 38 -39 49 0 113 -83 113 -147 0 -24 -8 -32 -55 -55 -56 -27 -56 -27 -75
-8 -15 15 -34 20 -77 20 -32 0 -71 7 -86 15 -27 14 -29 13 -34 -5 -6 -24 -4
-25 -47 1 -25 15 -36 28 -36 45 0 14 -6 24 -15 24 -8 0 -42 18 -76 40 -67 43
-103 51 -97 23 2 -10 25 -26 54 -38 60 -24 114 -56 114 -68 0 -5 -10 -5 -22
-2 -43 12 -183 83 -212 108 l-30 24 33 209 c18 115 38 236 45 269 11 55 14 60
37 57 118 -16 2353 -29 2474 -15 28 3 265 0 528 -7 263 -7 532 -9 597 -5 l120
7 0 34 c0 40 7 38 -171 34 l-116 -2 -5 38 c-7 63 -4 812 4 820 4 4 62 9 128
12 118 5 121 5 134 31 20 39 26 221 9 262 -7 18 -11 39 -9 46 3 7 1 235 -5
505 -6 348 -6 508 1 543 15 70 32 1459 19 1503 -20 62 -87 33 -109 -48 -7 -26
-10 -137 -8 -308 1 -147 -1 -273 -5 -279 -9 -14 -103 -18 -144 -7 l-23 6 0
282 c0 397 -9 459 -53 396z m-1651 -134 c21 -16 14 -29 -23 -41 -20 -6 -23 -3
-23 24 0 34 15 39 46 17z m428 -25 c10 -9 32 -34 47 -55 26 -36 29 -46 29
-123 0 -65 -5 -93 -21 -124 -11 -22 -23 -63 -26 -90 -3 -27 -9 -49 -12 -49
-10 0 -84 80 -111 118 -21 31 -21 34 -4 32 49 -6 59 13 24 45 -16 14 -20 31
-20 79 0 34 -4 78 -9 99 -9 36 -7 41 22 67 32 29 48 29 81 1z m514 2 c18 -9
37 -24 43 -35 6 -10 40 -38 78 -62 64 -41 110 -91 96 -104 -3 -3 -18 2 -33 11
-44 28 -145 80 -177 92 -24 8 -29 15 -27 37 2 25 -1 27 -55 38 -69 15 -150 7
-212 -21 l-46 -20 -27 31 c-40 44 -36 53 20 46 26 -3 83 -2 127 3 95 10 168 5
213 -16z m-323 -133 c8 -16 15 -51 15 -78 0 -40 -5 -53 -26 -73 l-26 -24 8 25
c5 14 9 60 8 103 0 42 1 77 2 77 2 0 10 -13 19 -30z m601 -81 c3 -6 1 -16 -5
-22 -9 -9 -14 -8 -21 3 -5 8 -10 18 -10 23 0 11 28 8 36 -4z m-1107 -90 c1 -9
-9 -21 -22 -26 -13 -6 -45 -29 -71 -52 -26 -23 -49 -41 -51 -41 -2 0 1 12 8
28 34 75 61 115 90 132 l32 20 7 -23 c3 -12 6 -29 7 -38z m140 -48 c14 -10 22
-25 19 -37 -3 -17 -6 -17 -31 8 -43 43 -34 65 12 29z m-5923 -75 c61 -8 138
-22 171 -30 34 -9 86 -16 116 -16 30 0 74 -7 98 -15 24 -9 91 -23 149 -31 61
-9 126 -25 155 -39 37 -17 74 -25 140 -29 113 -6 179 -24 555 -146 221 -72
341 -117 435 -164 176 -86 552 -297 595 -334 19 -16 98 -74 175 -129 77 -56
161 -119 186 -142 93 -82 182 -304 244 -606 13 -66 54 -332 55 -357 0 -4 -51
17 -112 47 -62 30 -141 61 -174 69 -78 20 -176 21 -213 1 -28 -14 -74 -62 -84
-87 -7 -17 -61 43 -124 137 -81 119 -140 296 -178 538 -65 404 -74 440 -146
529 -28 35 -54 68 -57 74 -22 34 -227 133 -472 227 -152 58 -490 158 -600 177
-36 6 -124 27 -197 45 -132 34 -492 89 -799 121 -197 21 -615 24 -759 6 -229
-30 -315 -73 -538 -272 -27 -25 -104 -108 -170 -185 -67 -77 -145 -165 -174
-195 -29 -30 -90 -94 -136 -142 l-82 -88 -22 38 -21 38 104 130 c60 73 119
159 138 199 19 39 48 84 66 100 17 17 41 46 52 65 31 51 223 245 293 295 65
46 146 89 268 141 63 27 93 34 150 35 40 1 101 5 137 9 104 13 650 3 776 -14z
m-3452 -136 c5 -6 -199 -835 -212 -859 -4 -7 -39 -22 -77 -32 -39 -10 -124
-36 -189 -59 -65 -22 -122 -38 -125 -34 -8 7 -14 962 -6 981 4 12 53 14 304
11 165 -2 302 -5 305 -8z m386 -390 l0 -400 -62 0 c-35 0 -139 -11 -233 -24
-93 -14 -172 -23 -174 -21 -5 5 199 831 207 839 3 3 63 6 134 6 l128 0 0 -400z
m4135 392 c29 -5 40 -12 42 -25 1 -14 -4 -17 -20 -14 -12 3 -49 11 -81 17 -41
8 -55 15 -45 21 16 10 47 10 104 1z m960 -8 l60 -6 -3 -96 c-2 -54 -2 -145 -2
-204 1 -67 -2 -108 -8 -108 -6 0 -64 27 -129 59 -65 33 -154 74 -198 91 -121
48 -544 200 -557 200 -18 0 -48 31 -48 51 0 16 11 19 93 22 118 5 713 -2 792
-9z m1233 0 l32 -5 0 -539 0 -539 -27 4 c-71 11 -274 14 -299 4 -26 -9 -27
-11 -10 -27 15 -15 37 -17 176 -14 l160 3 0 -422 0 -422 -48 5 c-26 3 -61 11
-77 19 -25 12 -31 22 -37 64 -49 360 -83 506 -160 681 -54 122 -107 201 -191
285 -44 45 -68 78 -76 105 -12 43 -16 647 -5 752 l7 60 261 -4 c143 -3 276 -7
294 -10z m507 1 l30 -5 0 -535 0 -535 -230 2 -230 3 -3 529 c-1 312 2 533 7
540 9 11 358 12 426 1z m-5957 -94 c-10 -53 -43 -204 -73 -336 -31 -132 -60
-262 -66 -290 -19 -88 -18 -86 -52 -83 l-32 3 -3 397 -2 397 22 4 c13 2 68 4
124 4 l100 0 -18 -96z m374 89 l38 0 0 -236 0 -235 -42 -62 c-54 -81 -173
-223 -212 -252 -31 -23 -82 -31 -170 -27 -32 2 -37 5 -31 20 6 16 36 145 116
507 17 77 42 176 56 219 l25 79 90 -7 c50 -3 108 -6 130 -6z m6611 -6 l77 -7
0 -46 c0 -60 -42 -153 -65 -145 -17 7 -55 -21 -55 -40 0 -16 67 -191 91 -237
l19 -39 -29 0 c-31 0 -29 -5 -76 189 -19 79 -49 131 -77 131 -11 0 -35 -7 -53
-16 l-33 -15 29 -79 c34 -94 68 -168 80 -176 20 -12 7 -24 -26 -24 -29 0 -35
4 -35 21 0 18 -4 20 -44 14 -43 -7 -43 -6 -50 27 -4 18 -9 126 -12 241 l-4
207 94 0 c51 0 127 -3 169 -6z m2520 -91 c4 -54 7 -207 7 -341 l0 -242 -27 6
c-16 4 -50 18 -78 33 l-50 26 -8 95 c-13 150 -5 216 31 281 35 62 42 121 18
167 -7 15 -17 37 -20 50 -7 21 -5 22 57 22 l64 0 6 -97z m227 -283 c0 -324 -2
-380 -14 -380 -8 0 -47 12 -85 26 l-71 26 0 347 c0 191 3 351 7 354 3 4 42 7
85 7 l78 0 0 -380z m-2591 311 c6 -10 7 -21 4 -25 -9 -8 -33 14 -33 30 0 20
18 17 29 -5z m213 -53 c29 -25 58 -84 46 -96 -8 -8 -8 -18 0 -39 11 -28 16
-64 14 -95 -2 -17 -69 -64 -79 -54 -3 3 0 19 7 36 17 42 7 177 -14 199 -15 14
-19 14 -51 -3 -47 -26 -81 -64 -69 -76 7 -7 16 -4 29 10 20 22 50 26 61 8 4
-6 1 -16 -8 -22 -14 -8 -13 -14 4 -53 16 -36 17 -47 7 -60 -19 -22 -80 -11
-137 26 -44 28 -48 33 -44 65 2 18 -1 37 -7 40 -18 11 -13 48 11 73 28 30 71
30 90 1 l15 -22 24 25 c44 47 74 58 101 37z m1508 -68 c22 0 80 -119 80 -162
0 -33 -4 -38 -50 -62 -57 -30 -73 -32 -89 -12 -10 11 -4 18 26 32 21 11 38 24
38 29 0 19 -43 16 -84 -4 -42 -22 -71 -27 -71 -13 0 13 31 37 67 51 40 16 52
41 19 41 -13 0 -40 -7 -61 -16 -20 -8 -40 -13 -43 -9 -10 10 21 31 71 49 39
15 46 21 36 32 -15 19 -29 18 -85 -6 -55 -24 -66 -19 -35 14 28 29 83 46 131
41 19 -3 42 -5 50 -5z m132 -25 c20 -14 41 -25 45 -25 17 0 45 -99 41 -143 -3
-24 1 -53 9 -70 18 -36 10 -47 -36 -47 -33 0 -101 17 -101 25 0 1 9 22 20 46
26 58 25 102 -4 152 -51 88 -42 108 26 62z m-7175 -48 c76 -25 48 -33 -119
-33 -151 0 -169 -2 -243 -27 -199 -66 -324 -186 -444 -423 -47 -93 -57 -131
-53 -197 3 -37 28 -46 187 -62 72 -7 157 -20 190 -29 33 -8 132 -24 220 -36
189 -24 192 -25 175 -45 -16 -19 -52 -19 -114 0 -27 8 -148 26 -270 40 -351
39 -429 58 -449 108 -12 29 -10 41 23 142 46 137 56 157 119 225 28 30 51 59
51 64 0 19 168 179 210 201 164 82 391 114 517 72z m5705 -16 c29 -26 33 -36
33 -78 0 -38 -7 -58 -33 -95 -17 -26 -32 -51 -32 -57 0 -7 -24 -11 -60 -11
-41 0 -60 4 -60 13 0 6 -3 21 -6 33 -5 17 0 22 25 27 42 9 61 44 68 126 7 81
15 87 65 42z m543 -23 c4 -18 24 -60 45 -93 41 -64 64 -114 55 -123 -7 -7
-326 -18 -323 -11 13 28 194 259 204 259 7 0 15 -15 19 -32z m-4793 -87 c18
-11 67 -24 108 -31 46 -7 82 -18 95 -30 11 -10 36 -23 55 -28 33 -10 34 -10 7
-11 -15 -1 -83 17 -150 39 -68 22 -147 44 -177 50 -75 14 -87 30 -23 30 33 0
64 -7 85 -19z m3928 -88 c0 -39 -2 -43 -25 -43 -14 0 -27 6 -29 13 -2 6 -10
35 -18 63 l-15 52 43 -22 c40 -20 43 -24 44 -63z m-5086 10 c-4 -27 -26 -150
-50 -275 -44 -229 -51 -288 -35 -288 17 0 29 26 35 82 4 31 20 106 37 165 16
59 29 123 29 140 0 28 6 36 40 53 73 37 70 46 70 -205 0 -207 -1 -225 -17
-226 -10 0 -46 0 -80 1 -50 1 -63 -2 -63 -14 0 -23 20 -31 85 -31 59 0 60 -1
70 -32 6 -21 16 -33 27 -33 11 0 21 11 26 33 5 17 13 31 19 30 5 -1 89 -5 186
-9 133 -5 183 -4 206 6 68 28 10 55 -99 46 -41 -3 -129 -3 -197 0 l-123 7 0
221 c0 122 4 226 8 233 13 21 140 36 247 30 152 -9 293 -44 316 -79 8 -12 -11
-117 -59 -328 -23 -96 -44 -197 -48 -223 -3 -27 -12 -51 -19 -53 -7 -3 -160
17 -341 45 -316 48 -329 51 -353 78 l-26 28 -3 -29 c-6 -51 22 -67 145 -82 59
-7 180 -24 268 -38 88 -14 241 -37 341 -51 99 -13 199 -31 221 -39 22 -8 117
-24 212 -36 94 -11 190 -28 213 -36 22 -7 62 -14 89 -14 26 0 60 -5 76 -11 15
-6 62 -15 103 -20 41 -5 134 -20 205 -34 214 -42 300 -45 264 -10 -8 8 -54 18
-114 24 -92 10 -268 41 -505 90 -52 10 -195 34 -317 52 l-223 32 0 41 c1 36 2
39 14 24 7 -10 16 -18 19 -18 17 0 63 162 126 450 29 127 26 124 94 110 l56
-11 -5 -62 c-3 -34 -9 -116 -12 -182 l-7 -120 -72 3 c-79 3 -96 -7 -67 -39 15
-17 28 -20 79 -17 l60 3 5 -90 c6 -95 15 -128 34 -122 7 2 13 42 16 103 l5 99
305 3 c168 2 351 0 407 -3 l102 -7 5 -36 c3 -21 11 -92 17 -158 11 -102 10
-130 -2 -175 -14 -53 -15 -54 -54 -57 -59 -5 -220 16 -385 49 -187 38 -597
104 -770 123 -74 9 -193 27 -265 41 -71 14 -258 45 -414 70 -157 25 -286 46
-286 48 -1 1 -9 24 -19 51 l-16 49 70 332 c39 182 70 335 70 338 0 4 7 7 15 7
12 0 13 -10 9 -47z m5210 -16 c10 -28 2 -47 -13 -31 -5 5 -11 22 -15 37 -9 37
15 32 28 -6z m1426 23 c0 -5 -4 -10 -10 -10 -5 0 -10 5 -10 10 0 6 5 10 10 10
6 0 10 -4 10 -10z m-502 -22 c-6 -18 -28 -21 -28 -4 0 9 7 16 16 16 9 0 14 -5
12 -12z m-4587 -24 c53 -10 99 -25 124 -42 22 -14 58 -28 79 -32 22 -3 41 -11
44 -19 3 -10 -1 -12 -14 -9 -124 36 -264 83 -293 98 -44 24 -43 24 60 4z
m3186 -80 c-3 -3 -12 -4 -19 -1 -8 3 -5 6 6 6 11 1 17 -2 13 -5z m136 -1 c-7
-2 -21 -2 -30 0 -10 3 -4 5 12 5 17 0 24 -2 18 -5z m412 -3 c-3 -5 -15 -10
-25 -10 -10 0 -22 5 -25 10 -4 6 7 10 25 10 18 0 29 -4 25 -10z m135 0 c0 -5
-22 -10 -50 -10 -27 0 -50 5 -50 10 0 6 23 10 50 10 28 0 50 -4 50 -10z m375
0 c18 -5 -23 -8 -105 -8 -82 0 -123 3 -105 8 17 4 64 8 105 8 41 0 89 -4 105
-8z m605 0 c-36 -11 -132 -11 -150 0 -10 7 15 9 80 9 63 -1 87 -4 70 -9z m295
0 c-16 -4 -46 -8 -65 -8 l-35 1 35 7 c19 4 49 7 65 8 l30 0 -30 -8z m145 0 c0
-5 -13 -8 -29 -7 -16 1 -27 5 -24 10 6 10 53 9 53 -3z m200 0 c0 -6 -35 -10
-87 -9 -59 0 -81 3 -68 9 28 12 155 12 155 0z m-1270 -30 c569 -5 1082 -13
1140 -17 l105 -8 -85 -5 c-100 -6 -2482 9 -2489 15 -13 14 22 21 127 26 64 3
128 4 142 2 14 -2 491 -8 1060 -13z m-4397 -94 c251 -61 603 -195 633 -241 8
-12 15 -39 17 -61 2 -34 -1 -39 -18 -37 -11 1 -194 5 -407 9 l-388 7 3 179 c1
98 6 178 10 178 5 0 73 -15 150 -34z m4639 -25 c1029 -6 1090 -8 1032 -39 -24
-13 -2236 -20 -2466 -8 -173 8 -186 13 -171 52 6 15 32 16 292 9 157 -4 748
-11 1313 -14z m-8694 -83 c119 2 165 -1 205 -14 37 -11 109 -17 255 -21 l203
-6 45 -63 c46 -64 118 -134 138 -134 6 0 25 -12 41 -26 l30 -25 -35 6 c-124
22 -316 46 -440 55 -195 13 -620 13 -978 -2 -160 -6 -294 -9 -296 -7 -3 2 6
45 19 94 l23 90 39 7 c39 7 295 45 348 52 17 2 80 1 140 -2 61 -4 179 -6 263
-4z m8377 0 c1301 3 1398 -1 1356 -52 -12 -14 -107 -16 -1010 -16 -548 0
-1141 3 -1318 7 l-323 6 0 27 c0 15 3 30 8 34 4 4 72 4 152 0 80 -5 591 -7
1135 -6z m-7525 -125 c63 -60 133 -122 155 -139 48 -38 142 -61 395 -99 96
-15 195 -33 219 -41 25 -8 60 -14 78 -14 19 0 46 -6 61 -14 15 -7 110 -23 212
-35 163 -19 283 -41 296 -54 8 -8 -29 -77 -41 -77 -6 0 -77 13 -157 30 -79 16
-196 34 -259 40 -66 6 -150 20 -199 35 -47 14 -150 34 -230 45 -80 10 -167 24
-195 30 -27 7 -93 13 -145 15 -52 1 -115 7 -140 13 -25 6 -90 16 -145 21 -55
6 -181 22 -280 35 -99 14 -267 30 -374 36 -238 14 -286 30 -86 29 77 0 156 0
175 1 130 4 603 -48 680 -75 47 -17 98 -19 118 -6 21 13 -10 66 -61 101 -123
87 -235 199 -221 221 12 20 35 4 144 -98z m2781 -15 c-13 -70 -50 -188 -58
-188 -8 0 3 50 34 162 29 109 42 122 24 26z m6072 31 c41 -11 47 -23 17 -39
-22 -12 -1410 -15 -1800 -4 -250 8 -820 -4 -820 -16 0 -4 7 -10 15 -14 8 -3
423 -5 923 -4 499 0 927 0 952 0 25 -1 199 -2 387 -4 299 -3 344 -5 358 -19
15 -15 15 -18 -2 -34 -17 -18 -65 -18 -1153 -9 -624 5 -1215 9 -1312 9 -170
-1 -177 0 -182 20 -9 34 -7 95 5 117 l11 20 1282 -7 c761 -4 1296 -10 1319
-16z m-9843 -169 c0 -5 -14 -10 -31 -10 -17 0 -28 4 -24 10 3 6 17 10 31 10
13 0 24 -4 24 -10z m9869 -27 c17 -11 20 -18 12 -26 -9 -9 -308 -13 -1159 -15
-1226 -3 -1490 1 -1499 24 -15 41 -54 40 1313 36 1142 -3 1312 -6 1333 -19z
m-3281 11 l102 -6 0 -196 c0 -186 -17 -632 -24 -639 -1 -2 -101 0 -221 3
l-217 7 4 406 c2 223 6 411 10 416 8 12 206 18 346 9z m589 -7 c4 -5 8 -175 8
-377 0 -366 3 -405 33 -386 7 4 9 108 6 296 -3 160 -3 294 1 299 3 6 18 6 36
1 16 -5 608 -10 1314 -11 1355 -2 1346 -1 1304 -44 -14 -14 -115 -16 -975 -20
-527 -3 -1112 -1 -1299 3 -187 5 -346 7 -353 4 -80 -29 224 -34 2093 -37 281
0 518 -4 528 -9 22 -11 22 -19 -4 -42 -21 -19 -53 -19 -1234 -16 -1147 4
-1405 0 -1374 -19 7 -4 576 -7 1263 -7 688 0 1272 -3 1298 -7 56 -8 76 -26 53
-45 -13 -11 -260 -12 -1320 -6 -1176 6 -1305 5 -1305 -8 0 -9 3 -16 8 -16 277
-3 1496 -8 1953 -9 611 -1 627 -1 650 -21 24 -20 24 -20 4 -36 -18 -14 -145
-15 -1304 -9 -706 3 -1288 8 -1292 11 -5 3 -9 1 -9 -5 0 -14 13 -20 67 -31 29
-5 561 -10 1251 -11 677 -1 1202 -5 1202 -10 0 -5 -30 -9 -67 -9 -38 1 -201
-2 -363 -5 -162 -3 -700 -7 -1195 -11 -495 -3 -904 -9 -908 -13 -5 -5 -2 -15
6 -23 23 -22 523 -29 1647 -21 907 6 956 5 970 -12 13 -15 12 -19 -7 -34 -19
-16 -79 -18 -699 -24 -372 -4 -958 -7 -1301 -7 -507 0 -623 -2 -623 -13 0 -21
38 -56 68 -63 82 -18 126 -34 355 -130 137 -57 258 -104 268 -104 17 0 44 -20
51 -39 2 -5 244 -11 589 -13 322 -3 591 -8 597 -12 8 -5 9 -13 2 -26 -6 -11
-9 -169 -7 -413 l2 -395 -510 -4 c-280 -1 -523 -1 -538 1 l-28 3 6 102 c12
193 11 694 -2 706 -30 31 -35 -28 -37 -421 l-1 -389 -388 2 -388 3 1 520 c0
475 2 521 17 533 9 6 27 12 40 12 13 0 23 4 23 9 0 13 -117 21 -301 21 -91 0
-194 3 -229 7 l-63 6 7 66 c3 36 9 221 12 411 4 190 11 347 15 351 14 8 367 5
376 -4z m2557 -80 c114 -2 141 -6 149 -19 6 -8 8 -22 4 -30 -9 -24 -627 -32
-1332 -19 -319 6 -750 11 -957 11 l-378 0 0 31 0 31 1008 -6 c572 -4 1039 -3
1082 2 41 5 122 7 180 5 58 -2 168 -5 244 -6z m-7009 -191 c267 -47 287 -50
605 -90 151 -20 345 -49 430 -65 177 -34 671 -115 805 -131 50 -6 115 -18 146
-26 31 -7 73 -14 93 -14 21 0 68 -7 105 -15 55 -13 70 -21 80 -41 13 -29 15
-57 3 -50 -5 3 -92 14 -193 26 -101 11 -278 38 -394 60 -115 22 -273 49 -350
60 -473 67 -1023 154 -1136 180 -48 11 -116 20 -152 20 -35 0 -97 7 -136 16
-39 9 -79 13 -88 9 -10 -5 -23 -7 -30 -6 -6 1 -23 -13 -37 -31 l-26 -33 6 65
c9 107 11 112 42 106 15 -3 117 -21 227 -40z m-3207 -127 c78 -24 142 -47 142
-51 0 -16 -79 -7 -138 16 -34 14 -115 37 -179 52 -137 31 -142 33 -119 49 20
15 64 5 294 -66z m-423 51 c0 -9 -8 -14 -20 -12 -35 5 -46 12 -40 23 10 15 60
7 60 -11z m-70 -21 c56 -21 68 -35 39 -46 -19 -7 -155 47 -148 58 9 15 50 10
109 -12z m591 -5 c153 -31 404 -125 439 -164 17 -18 13 -18 -66 4 -46 13 -172
55 -279 93 -107 39 -204 73 -215 76 -53 13 54 5 121 -9z m-278 -36 c85 -25 96
-43 20 -35 -80 9 -158 35 -158 53 0 18 22 15 138 -18z m-371 -10 c69 -23 93
-36 93 -49 0 -25 -40 -31 -96 -14 -87 25 -184 60 -184 66 0 10 43 28 70 28 13
1 66 -13 117 -31z m2543 2 c0 -5 -7 -10 -15 -10 -8 0 -15 5 -15 10 0 6 7 10
15 10 8 0 15 -4 15 -10z m-2270 -29 c0 -11 -40 -22 -52 -15 -12 8 -10 32 5 37
14 5 47 -10 47 -22z m3210 -30 c-13 -32 -30 -41 -30 -16 0 8 5 26 12 40 17 38
34 15 18 -24z m-3625 10 c50 -16 89 -32 89 -37 -4 -26 -37 -28 -116 -6 -153
43 -172 49 -176 60 -7 22 109 12 203 -17z m-207 -26 c80 -16 182 -53 182 -65
0 -13 -28 -20 -77 -20 -31 0 -74 13 -139 41 -127 56 -113 75 34 44z m-87 -55
c65 -20 140 -69 107 -70 -25 0 -211 51 -225 62 -41 33 25 37 118 8z m-105 -55
c31 -14 71 -25 88 -25 34 0 64 -15 53 -26 -7 -8 -212 33 -240 47 -9 6 -15 14
-12 20 10 16 52 10 111 -16z m-40 -55 c106 -27 115 -31 84 -40 -15 -4 -53 1
-92 12 -37 10 -79 18 -92 18 -13 0 -26 7 -30 15 -8 21 33 20 130 -5z m4023
-12 c-8 -31 -29 -61 -29 -43 0 17 24 75 31 75 4 0 3 -14 -2 -32z m2742 1 c74
-24 179 -78 179 -91 0 -11 -24 -5 -115 32 -38 15 -85 31 -102 35 -24 5 -33 12
-33 26 0 23 -6 23 71 -2z m-6836 -31 c28 -6 65 -17 83 -25 40 -16 43 -38 5
-30 -16 4 -66 13 -111 21 -80 15 -112 28 -112 47 0 10 54 4 135 -13z m7361 2
c93 -24 174 -61 290 -131 46 -27 159 -86 251 -130 93 -44 187 -90 210 -102
l43 -22 -53 -12 c-82 -19 -126 -15 -192 17 -40 21 -74 30 -106 30 -26 0 -68 9
-94 20 -26 11 -64 20 -85 20 -56 0 -115 22 -285 105 -145 71 -225 124 -225
148 1 18 45 64 66 70 42 11 105 6 180 -13z m4440 -5 c26 -19 -1 -20 -36 0 -23
13 -23 14 -4 15 11 0 29 -7 40 -15z m-11838 -53 c90 -24 102 -30 88 -41 -23
-20 -139 -9 -201 19 -47 20 -49 22 -31 36 26 18 24 18 144 -14z m-133 -43 c68
-17 145 -51 139 -60 -10 -17 -75 -9 -134 16 -33 14 -66 25 -75 25 -8 0 -15 7
-15 15 0 18 28 19 85 4z m4226 -66 c-10 -17 -10 -16 -11 3 0 23 13 41 18 25 2
-6 -1 -18 -7 -28z m-4208 -12 c65 -30 79 -51 36 -51 -12 0 -54 14 -96 30 -41
17 -81 30 -89 30 -15 0 -19 12 -6 24 13 14 86 -2 155 -33z m8498 -13 c10 -16
11 -157 1 -212 l-7 -39 -31 26 c-17 14 -43 29 -58 33 -15 4 -51 22 -79 42 -29
19 -93 54 -142 77 -100 47 -128 70 -104 86 22 16 410 4 420 -13z m575 9 c1 -1
0 -239 -3 -528 l-6 -527 -198 2 c-110 0 -199 2 -199 3 0 1 11 58 25 127 14 69
25 148 25 176 0 30 7 61 16 76 35 53 1 164 -85 277 l-51 68 0 127 c0 164 6
199 34 206 20 4 437 -2 442 -7z m-2159 -25 c-8 -10 -17 -24 -20 -32 -3 -8 -6
-1 -6 17 -1 17 5 33 12 36 21 8 29 -4 14 -21z m-2726 -25 c-13 -13 -15 1 -4
30 7 17 8 17 11 -1 2 -10 -1 -23 -7 -29z m3053 -47 c3 -22 11 -131 16 -243 6
-111 26 -384 45 -607 51 -603 75 -1057 55 -1045 -5 3 -10 27 -10 53 0 26 -5
85 -10 132 -5 47 -16 175 -25 285 -8 110 -19 227 -25 260 -5 33 -10 99 -10
146 0 90 -42 659 -60 809 -15 128 -13 250 4 250 8 0 16 -16 20 -40z m-3073
-126 c-25 -87 -26 -57 -4 61 16 77 18 84 21 49 2 -22 -6 -71 -17 -110z m2753
28 c14 -23 46 -441 71 -932 9 -162 20 -333 25 -380 6 -47 10 -105 10 -129 0
-37 -2 -42 -15 -31 -10 8 -15 30 -15 63 0 28 -4 112 -10 187 -5 74 -14 214
-20 310 -6 96 -19 247 -30 335 -11 88 -23 241 -26 340 -2 99 -7 195 -9 213 -3
30 7 43 19 24z m5144 -437 l3 -421 -506 1 -505 0 -5 30 c-3 16 -6 204 -8 417
l-2 387 95 4 c52 1 282 3 510 2 l415 0 3 -420z m-3871 349 c12 -3 25 -14 28
-24 4 -12 20 -19 52 -24 61 -8 213 -85 213 -108 0 -16 -4 -16 -47 -3 -27 8
-104 37 -173 64 -69 27 -127 47 -130 44 -13 -12 57 -54 123 -73 39 -11 92 -29
117 -40 25 -11 54 -20 64 -22 21 -3 44 -33 33 -44 -4 -4 -17 2 -30 14 -13 12
-35 22 -50 22 -30 0 -120 33 -220 80 -64 30 -68 34 -62 59 7 30 33 61 49 61 6
0 21 -3 33 -6z m147 -18 c38 -16 131 -83 101 -72 -61 21 -175 72 -175 79 0 11
38 8 74 -7z m-4208 -114 c-11 -10 -14 3 -8 33 l7 30 3 -28 c2 -16 1 -31 -2
-35z m4045 -18 c30 -9 80 -30 113 -46 54 -27 57 -31 42 -46 -15 -15 -20 -14
-68 7 -29 13 -62 25 -73 28 -11 2 -30 10 -43 16 -16 8 -25 8 -33 0 -16 -16 28
-42 108 -62 38 -10 78 -23 89 -29 25 -13 49 -40 42 -47 -6 -6 -106 31 -202 75
-67 31 -68 32 -61 63 4 18 7 38 8 45 1 16 12 15 78 -4z m417 -46 c17 -17 15
-28 -6 -28 -19 0 -42 18 -42 32 0 12 35 9 48 -4z m-4478 -34 c0 -8 -4 -12 -10
-9 -5 3 -10 10 -10 16 0 5 5 9 10 9 6 0 10 -7 10 -16z m4512 -43 c18 -16 30
-32 27 -35 -9 -9 -92 28 -108 48 -12 14 -10 16 18 16 20 0 42 -10 63 -29z
m-426 -37 c32 -15 88 -35 122 -45 75 -21 92 -33 92 -65 l0 -23 -57 20 c-81 28
-293 130 -293 142 0 15 71 0 136 -29z m-6229 -6 c-8 -18 -24 -49 -35 -68 -12
-19 -22 -46 -22 -60 0 -14 -7 -47 -15 -73 -10 -35 -12 -54 -4 -68 20 -38 34
-19 58 79 13 53 32 121 43 150 l19 52 55 0 55 0 -34 -42 c-56 -69 -78 -123
-75 -176 4 -59 21 -59 29 0 11 73 58 148 93 148 13 0 4 -40 -29 -135 -41 -118
-42 -141 -13 -262 24 -103 21 -114 -40 -140 -44 -18 -60 -11 -101 43 -36 48
-65 69 -81 59 -21 -13 -8 -40 41 -85 l50 -46 -20 -90 c-19 -89 -37 -144 -45
-144 -2 0 -30 25 -62 56 -69 68 -157 112 -246 123 -47 6 -58 10 -43 16 58 23
84 38 129 70 28 21 60 35 77 35 41 0 51 26 48 133 -3 115 4 168 25 198 9 13
16 34 16 47 0 35 73 201 90 206 8 2 23 4 33 5 16 1 16 -2 4 -31z m2127 14 c7
-12 -5 -52 -15 -52 -5 0 -9 14 -9 30 0 28 13 40 24 22z m4504 -21 c20 -10 46
-29 57 -41 l20 -23 -35 6 c-64 9 -115 34 -118 56 -4 27 25 28 76 2z m-5628
-117 c0 -85 5 -101 27 -83 9 8 13 37 13 90 0 98 16 104 61 24 17 -30 35 -58
40 -61 5 -3 9 -39 9 -81 0 -42 5 -91 12 -109 9 -27 8 -43 -11 -100 -38 -118
-52 -139 -89 -142 -19 -2 -54 4 -80 12 -57 20 -96 20 -112 1 -20 -24 -2 -35
57 -35 50 0 60 -4 97 -37 41 -37 41 -38 57 -153 14 -99 15 -190 3 -190 -3 0
-30 21 -62 47 -93 76 -170 107 -279 111 -51 3 -93 7 -93 9 0 3 26 42 58 86 33
45 75 106 95 136 l36 55 -32 40 c-63 79 -67 89 -66 178 1 46 4 94 8 107 6 22
9 20 39 -29 28 -45 31 -56 23 -85 -15 -56 3 -61 43 -11 21 25 35 50 31 55 -3
6 1 21 10 34 8 13 22 48 31 78 23 83 58 158 66 145 4 -6 8 -47 8 -92z m5233
50 c61 -31 130 -62 151 -68 22 -6 41 -17 44 -24 7 -21 -30 -13 -87 20 -31 17
-101 45 -156 63 -70 22 -101 36 -103 48 -6 30 33 20 151 -39z m227 41 c0 -8
-7 -15 -15 -15 -8 0 -15 7 -15 15 0 8 7 15 15 15 8 0 15 -7 15 -15z m157 -46
c43 -12 83 -41 83 -60 0 -6 -6 -9 -12 -7 -7 3 -43 16 -80 29 -50 18 -68 29
-68 42 0 13 5 17 18 13 9 -2 36 -10 59 -17z m-317 -80 c98 -42 120 -55 120
-71 0 -26 -45 -14 -188 47 -179 78 -166 71 -158 83 9 15 117 -13 226 -59z
m-7545 -3 c28 -4 122 -11 210 -16 88 -5 176 -15 195 -21 19 -6 87 -12 150 -13
98 -2 131 -8 225 -36 61 -18 135 -36 165 -39 l55 -6 9 -67 c12 -94 5 -115 -42
-125 -51 -11 -1049 3 -1081 16 -6 2 7 293 15 318 5 20 8 21 28 8 11 -7 44 -16
71 -19z m7881 3 c22 -11 46 -30 52 -44 15 -33 6 -32 -84 9 -48 23 -74 40 -74
51 0 20 43 14 106 -16z m-446 -38 c117 -39 213 -82 225 -101 13 -21 -26 -21
-82 -2 -223 79 -283 107 -283 134 0 14 22 9 140 -31z m-4100 -3 c0 -13 -5 -30
-10 -38 -7 -11 -10 -5 -10 23 0 20 5 37 10 37 6 0 10 -10 10 -22z m4528 -33
c66 -31 86 -55 47 -55 -25 0 -145 64 -145 77 0 20 20 16 98 -22z m-358 -66
c74 -28 136 -52 138 -54 2 -2 1 -13 -3 -25 -8 -25 -2 -27 -202 52 -116 45
-153 64 -153 77 0 28 10 31 49 15 20 -9 97 -38 171 -65z m317 20 c75 -32 116
-79 56 -64 -55 13 -133 54 -133 69 0 21 19 20 77 -5z m-447 -54 c36 -12 90
-34 121 -48 31 -14 71 -28 88 -32 29 -6 51 -30 51 -54 0 -22 -51 -10 -132 33
-45 24 -113 53 -150 65 -36 12 -72 28 -78 36 -15 18 -3 38 19 30 9 -4 45 -17
81 -30z m463 -27 c54 -26 67 -36 67 -54 l0 -23 -52 18 c-98 34 -128 53 -128
79 0 28 13 26 113 -20z m-502 -32 c30 -13 105 -45 167 -71 85 -37 112 -52 112
-66 0 -11 -4 -19 -10 -19 -8 0 -228 92 -312 131 -16 7 -28 20 -28 31 0 23 7
23 71 -6z m458 -36 c82 -34 101 -46 101 -66 0 -9 -7 -10 -27 -4 -28 8 -156 60
-161 65 -2 2 8 35 12 35 0 0 34 -14 75 -30z m-6204 -4 c39 -8 96 -20 127 -26
95 -19 79 -30 -41 -30 -103 0 -111 1 -111 19 0 31 -14 32 -53 6 -20 -14 -50
-25 -66 -25 -27 0 -31 3 -30 28 0 20 2 22 7 10 6 -16 10 -15 47 6 50 30 38 29
120 12z m5767 -43 c56 -26 78 -41 78 -55 0 -17 -2 -17 -32 -4 -108 46 -157 72
-158 84 0 20 30 14 112 -25z m-4067 -24 c4 -17 1 -30 -9 -38 -14 -12 -16 -8
-16 35 0 50 13 52 25 3z m4485 6 c8 -7 32 -18 53 -25 32 -10 57 -34 57 -54 0
-13 -44 -4 -88 18 -26 13 -59 26 -74 30 -30 7 -34 17 -18 47 9 16 14 17 33 8
12 -6 29 -17 37 -24z m-461 -30 c70 -27 91 -41 91 -61 0 -15 -33 -7 -117 28
-49 20 -63 35 -46 51 8 9 -1 11 72 -18z m-5782 -16 c21 -21 34 -22 207 -25
148 -3 190 -1 213 11 40 21 46 19 39 -16 -6 -33 -57 -108 -98 -147 l-24 -22
-297 8 c-163 4 -299 11 -303 14 -17 17 10 49 56 65 29 10 74 40 112 75 35 31
65 57 67 58 3 0 15 -10 28 -21z m-1287 -20 c0 -8 22 -10 74 -5 l75 7 53 -76
c29 -42 63 -90 75 -107 26 -35 38 -87 29 -123 -10 -38 -73 -103 -128 -131
-102 -52 -291 -73 -324 -36 -39 44 -64 94 -58 117 3 13 0 56 -7 95 -21 120 -1
157 126 229 78 43 85 46 85 30z m7325 -3 c38 -16 50 -56 17 -56 -27 0 -62 29
-62 51 0 23 1 23 45 5z m220 -21 c46 -20 94 -60 84 -69 -5 -4 -73 15 -141 39
-32 12 -48 23 -48 35 0 36 14 35 105 -5z m-6915 5 c0 -3 -17 -16 -37 -30 -74
-50 -113 -91 -113 -120 0 -31 -49 -81 -78 -79 -15 0 -152 192 -160 223 -2 8
53 11 193 11 107 0 195 -2 195 -5z m6447 -19 c66 -28 81 -45 69 -77 -9 -23
-166 59 -166 86 0 27 16 25 97 -9z m-4055 -31 c-2 -16 -8 -27 -13 -24 -11 6
-12 58 -2 67 11 12 20 -12 15 -43z m4286 -1 c30 -10 49 -44 30 -55 -6 -4 -28
-1 -49 6 -31 10 -39 18 -39 37 0 26 12 28 58 12z m146 5 c13 -5 14 -9 5 -20
-16 -20 -29 -17 -29 6 0 22 1 23 24 14z m99 -45 c75 -38 69 -32 60 -56 -8 -19
-10 -19 -70 9 -53 24 -63 32 -63 53 0 14 2 25 5 25 3 0 34 -14 68 -31z m-534
10 c30 -11 51 -35 51 -58 0 -16 -30 -13 -77 8 -34 16 -41 23 -36 40 6 24 17
26 62 10z m294 -56 c21 -19 22 -43 3 -43 -18 0 -76 48 -76 62 0 14 51 0 73
-19z m216 -28 c23 -14 49 -25 57 -25 9 0 14 -12 14 -35 0 -24 -5 -35 -15 -35
-8 0 -12 6 -9 13 6 18 -10 30 -68 52 -34 12 -48 23 -48 36 0 25 16 24 69 -6z
m-521 -4 c35 -10 42 -16 42 -36 0 -14 -1 -25 -3 -25 -2 0 -24 7 -50 16 -39 13
-47 20 -47 41 0 13 3 22 8 20 4 -3 26 -10 50 -16z m-6328 -12 c39 -17 51 -28
60 -55 7 -19 23 -48 36 -63 l24 -29 -25 -38 c-28 -42 -60 -138 -50 -154 12
-19 44 -10 64 18 30 43 112 55 381 59 124 1 251 5 283 9 32 3 74 3 93 0 l34
-7 -23 -46 -24 -46 -145 -1 c-141 -1 -146 -2 -204 -32 -66 -34 -53 -33 -284
-4 -86 11 -188 8 -226 -7 -12 -4 -11 3 5 33 43 80 12 264 -44 264 -21 0 -24
-36 -13 -133 10 -87 10 -95 -12 -145 -22 -51 -26 -55 -105 -91 -107 -50 -189
-124 -209 -188 -14 -43 36 -10 79 52 37 53 46 60 115 85 41 15 105 41 142 59
84 38 155 41 326 10 127 -23 213 -20 243 7 26 23 56 9 80 -37 44 -88 32 -301
-22 -369 -34 -44 -46 -80 -26 -80 8 0 20 7 27 15 7 8 29 15 49 15 52 0 163 26
218 50 90 39 302 173 353 223 27 27 53 61 56 75 3 15 15 50 28 77 13 28 26 64
30 81 6 26 15 33 61 49 71 24 87 42 97 117 4 34 10 64 13 66 2 3 24 -2 47 -11
24 -9 76 -21 117 -27 96 -13 119 -19 162 -41 23 -12 40 -14 46 -8 12 12 63
-26 63 -46 0 -7 10 -15 22 -17 13 -2 31 -18 43 -39 11 -20 78 -91 148 -157
102 -97 134 -122 156 -122 36 0 40 -6 81 -109 18 -46 44 -96 58 -112 49 -59
115 -74 192 -43 53 22 79 14 170 -52 94 -68 134 -105 166 -156 25 -39 34 -45
171 -103 38 -16 41 -20 32 -42 -21 -57 -3 -99 30 -69 10 9 22 16 27 16 5 0 34
-25 64 -55 30 -30 78 -66 109 -80 31 -15 67 -38 81 -52 14 -14 95 -60 180
-102 147 -72 155 -77 156 -106 1 -16 11 -51 22 -76 12 -26 31 -85 42 -131 24
-101 90 -210 165 -272 44 -36 47 -41 41 -75 -3 -19 -14 -47 -25 -62 -28 -38
-69 -264 -80 -437 -4 -78 -11 -145 -14 -148 -3 -4 -358 -3 -788 2 l-781 9 -37
105 c-246 696 -742 1105 -1466 1210 l-80 12 -74 71 c-40 40 -79 86 -87 103 -7
17 -20 77 -28 133 -17 109 -35 153 -73 170 -41 19 -29 48 31 77 103 48 75 71
-42 34 -35 -11 -91 -20 -123 -20 -44 0 -61 -4 -65 -15 -8 -20 13 -45 37 -45
11 0 19 -3 19 -6 0 -18 -85 -245 -106 -283 -29 -53 -29 -53 -1 -49 26 4 58 57
108 180 10 26 19 61 19 78 0 35 25 100 38 100 17 0 21 -12 11 -39 -6 -14 -12
-51 -14 -81 -1 -30 -6 -85 -10 -122 -7 -66 -3 -77 21 -60 19 13 31 46 39 107
7 62 19 95 34 95 16 0 24 -35 31 -140 9 -133 23 -162 144 -289 79 -83 96 -105
110 -153 9 -31 29 -82 46 -113 17 -32 30 -73 30 -92 0 -38 14 -71 40 -93 37
-32 43 -76 49 -405 6 -300 8 -323 28 -368 24 -51 38 -120 48 -232 4 -38 15
-127 26 -197 10 -70 19 -142 19 -162 0 -19 6 -61 14 -93 16 -63 33 -575 21
-613 l-7 -22 -15 21 c-8 12 -23 50 -33 84 -10 34 -31 91 -48 127 -16 36 -34
93 -40 128 -11 62 -30 110 -167 417 -113 255 -150 329 -251 492 -128 209 -181
286 -244 358 -29 32 -65 86 -80 120 -35 76 -116 155 -227 219 -46 26 -85 51
-88 55 -7 12 196 22 275 15 59 -6 74 -4 104 14 24 14 65 24 124 30 53 6 103
17 128 30 57 29 151 108 168 140 14 29 39 132 33 139 -17 16 -57 -37 -57 -77
0 -28 -42 -73 -119 -125 -63 -43 -76 -48 -152 -56 -46 -5 -97 -14 -114 -19
-31 -10 -298 -24 -396 -21 -49 2 -57 0 -55 -16 1 -15 -7 -18 -39 -18 -37 0
-40 2 -50 40 -11 45 -22 65 -35 65 -4 0 -31 -18 -59 -40 -44 -35 -50 -44 -41
-60 21 -39 13 -48 -40 -45 -28 1 -54 5 -57 8 -3 4 -5 37 -4 76 1 53 -3 73 -15
86 -16 16 -16 21 0 88 20 86 20 87 3 87 -21 0 -46 -33 -51 -66 -3 -16 -8 -46
-11 -67 -7 -44 -18 -41 -45 13 -27 54 -26 133 6 255 28 110 44 195 36 195 -10
0 -42 -33 -42 -44 0 -6 -18 -37 -41 -70 -22 -32 -43 -74 -46 -92 -3 -19 -9
-34 -13 -34 -24 0 -104 112 -152 213 -35 71 -65 119 -81 130 -35 23 -81 91
-101 151 -21 61 -37 256 -25 300 5 17 30 57 55 87 26 29 53 68 60 86 8 18 24
43 36 56 13 14 35 43 50 66 35 51 48 52 48 3 0 -34 -6 -44 -55 -86 -39 -33
-55 -54 -55 -72 0 -41 31 -31 69 24 19 27 28 32 47 28 18 -5 37 4 79 39 94 76
154 96 303 99 85 2 96 5 118 28 48 47 39 154 -19 244 -38 58 -104 43 -161 -36
-23 -32 -43 -49 -63 -53 -59 -11 -41 21 47 82 35 25 70 57 79 72 16 29 112 76
131 64 5 -3 10 -32 10 -63 0 -64 10 -88 34 -79 20 8 21 47 1 94 -8 19 -15 45
-15 58 0 53 86 135 142 135 16 0 51 -9 78 -21z m940 -23 c0 -7 -7 -19 -16 -27
-8 -7 -22 -26 -31 -43 -15 -30 -15 -30 22 -62 35 -29 37 -32 19 -42 -33 -17
-215 -25 -428 -17 l-206 7 -6 25 c-4 14 2 54 13 91 19 63 22 67 54 73 19 4
157 7 307 8 225 1 272 -1 272 -13z m5936 -70 c33 -38 34 -41 15 -44 -12 -2
-35 8 -51 22 -17 13 -39 27 -50 31 -21 7 -24 14 -14 38 9 25 59 1 100 -47z
m-4562 -54 c-1 -2 -18 2 -37 9 l-35 12 27 37 26 38 11 -47 c6 -25 10 -48 8
-49z m4020 77 c32 -25 33 -39 4 -39 -32 0 -88 22 -88 35 0 32 46 34 84 4z
m-4149 -74 c28 -8 97 -34 155 -59 l104 -44 13 -53 c16 -72 16 -89 -2 -89 -8 0
-24 -9 -35 -20 -17 -17 -18 -24 -9 -41 11 -21 11 -21 32 -1 42 37 51 36 194
-14 59 -21 67 -63 12 -64 -24 0 -100 -124 -120 -198 -31 -109 -38 -109 -99 5
-40 74 -54 110 -55 146 -2 26 -3 52 -4 57 -1 13 -31 13 -31 1 0 -5 -4 -21 -10
-36 -9 -24 -11 -25 -37 -11 -48 25 -134 112 -128 128 4 11 -11 30 -46 59 -93
78 -140 122 -135 127 3 2 35 -7 72 -22 61 -25 104 -27 104 -6 0 14 -91 60
-118 60 -31 0 -62 26 -62 52 0 10 3 18 6 18 4 0 48 -22 99 -50 68 -37 103 -50
134 -50 71 0 46 53 -31 65 -24 3 -52 10 -63 15 -11 5 -39 14 -62 20 -23 6 -45
16 -49 22 -9 14 99 3 171 -17z m4120 11 c24 -10 35 -22 35 -35 0 -26 -11 -26
-60 -1 -39 20 -47 30 -33 43 9 10 20 9 58 -7z m-5153 -31 l76 -17 13 -50 c23
-97 -8 -236 -81 -362 -23 -41 -38 -55 -77 -70 -26 -11 -95 -46 -153 -78 -99
-55 -209 -98 -251 -98 -24 0 -24 17 2 127 22 93 22 94 -18 281 -5 19 -1 22 28
22 19 -1 45 -7 59 -15 42 -24 109 -18 165 14 59 34 91 66 76 75 -6 4 -19 2
-30 -4 -33 -17 -44 -13 -36 17 11 46 121 187 140 180 6 -3 45 -12 87 -22z
m2943 -23 c166 -60 161 -57 189 -128 29 -72 34 -145 11 -167 -22 -22 -146 -42
-263 -42 -56 0 -102 -3 -102 -7 0 -4 9 -30 20 -58 21 -54 26 -100 10 -100 -5
0 -14 19 -20 43 -6 23 -19 67 -28 97 -18 54 -19 55 -58 56 -21 0 -52 6 -69 13
-16 7 -66 17 -109 21 -47 6 -86 16 -95 25 -13 13 -9 17 36 36 28 11 55 30 61
42 6 12 21 47 35 77 24 56 74 115 111 131 43 19 157 2 271 -39z m-1690 27 c4
-6 5 -13 1 -16 -8 -8 -56 6 -56 17 0 13 47 13 55 -1z m4484 -27 c5 -10 6 -24
1 -32 -7 -12 -11 -12 -25 0 -9 7 -21 22 -26 32 -8 15 -6 18 15 18 14 0 30 -8
35 -18z m-594 -18 c67 -32 44 -66 -25 -38 -27 11 -40 22 -40 35 0 23 21 24 65
3z m-1181 -39 c12 -12 27 -24 33 -26 5 -2 16 -17 24 -33 17 -35 37 -44 45 -21
4 10 -4 27 -22 46 -23 24 -25 29 -10 29 32 0 54 -19 91 -80 20 -33 49 -67 64
-75 42 -21 121 -164 121 -218 0 -4 -25 -19 -55 -33 -71 -34 -115 -83 -115
-129 0 -34 -2 -35 -37 -35 -46 0 -121 43 -127 73 -3 12 -7 56 -10 97 -4 66 -3
73 9 56 8 -11 20 -16 30 -12 13 5 4 29 -55 141 -38 74 -70 142 -70 150 0 25
17 17 56 -25 21 -22 43 -40 51 -40 26 0 12 31 -42 90 -31 34 -53 65 -50 69 8
14 44 1 69 -24z m1744 4 c25 -16 18 -59 -9 -52 -20 6 -34 37 -24 53 8 13 11
13 33 -1z m-555 -47 c20 -18 23 -42 5 -42 -7 1 -24 7 -38 15 -14 8 -30 14 -37
15 -23 0 -2 -27 33 -44 27 -12 35 -21 32 -39 -3 -24 -17 -25 -72 -2 -34 14
-34 15 -25 57 15 70 16 70 51 63 18 -4 41 -14 51 -23z m-6625 -17 c23 -29 57
-154 45 -166 -5 -5 -56 -10 -114 -13 -58 -3 -127 -10 -154 -17 -56 -13 -140
-53 -151 -70 -11 -19 -24 12 -24 62 0 71 66 143 95 103 12 -18 16 -18 84 -1
115 27 139 40 157 86 19 47 35 51 62 16z m7180 -18 c16 -19 0 -37 -26 -30 -27
7 -30 43 -3 43 10 0 23 -6 29 -13z m159 -89 c16 -18 15 -21 -5 -64 -12 -24
-22 -56 -22 -69 0 -21 7 -26 45 -36 42 -11 44 -12 38 -43 -3 -17 -6 -32 -7
-33 -1 0 -18 -4 -38 -8 -30 -6 -38 -4 -38 8 0 8 -7 20 -16 28 -8 7 -13 21 -11
31 7 24 -53 75 -98 84 -20 3 -56 4 -81 1 -47 -5 -55 4 -31 37 14 18 35 19 92
2 16 -5 26 3 46 36 24 37 26 44 13 63 -8 12 -11 25 -8 28 9 8 98 -40 121 -65z
m-173 16 c9 -22 -1 -34 -30 -34 -17 0 -24 6 -24 18 0 10 3 22 7 25 12 13 41 7
47 -9z m-578 -35 c8 -6 14 -17 14 -24 0 -10 -10 -9 -44 3 -41 16 -46 20 -46
41 0 12 56 -3 76 -20z m-7058 -15 c-10 -10 -28 6 -28 24 0 15 1 15 17 -1 9 -9
14 -19 11 -23z m7037 -41 c28 -13 34 -21 29 -37 -9 -29 -9 -29 -48 -16 -41 13
-61 34 -52 55 7 19 27 19 71 -2z m863 5 c7 -7 12 -20 12 -30 0 -14 -8 -18 -40
-18 -35 0 -40 3 -40 23 0 13 3 27 7 30 11 11 48 8 61 -5z m262 -44 c0 -31 25
-41 49 -20 41 37 58 -4 21 -51 -26 -33 -25 -45 3 -41 14 2 29 17 43 45 25 48
34 40 34 -31 0 -23 5 -47 11 -53 8 -8 7 -23 -6 -57 -13 -35 -16 -64 -13 -121
l5 -76 -31 -16 c-31 -16 -62 -15 -286 6 l-65 6 -3 48 c-3 46 9 77 29 77 5 0 9
-13 9 -30 0 -37 15 -38 60 -5 42 31 65 34 50 6 -36 -68 36 -31 75 39 17 29 36
62 42 73 15 25 17 57 4 57 -4 0 -29 -18 -54 -40 -50 -45 -99 -55 -90 -20 7 27
-13 25 -49 -5 -59 -50 -72 -14 -19 53 48 62 61 87 61 118 0 26 6 33 38 47 73
31 82 30 82 -9z m-3602 -78 c9 4 32 9 50 12 31 4 33 3 63 -64 20 -44 33 -92
37 -131 3 -44 9 -63 18 -63 38 0 -7 -47 -54 -56 -23 -5 -32 -3 -32 7 0 7 -22
61 -50 119 -53 113 -70 177 -61 231 6 32 6 31 9 -14 3 -41 6 -48 20 -41z m581
21 c6 -23 19 -54 28 -68 27 -40 136 -136 158 -140 11 -3 20 -11 20 -19 0 -29
-110 -24 -241 10 -81 21 -138 30 -179 29 -58 -2 -60 -1 -57 22 1 13 12 34 24
46 20 22 20 24 4 42 -14 16 -15 19 -2 24 8 3 23 3 35 0 26 -7 35 14 22 50 -10
26 -9 27 24 27 25 0 35 -5 40 -19 7 -22 39 -36 56 -26 6 4 8 18 4 32 -4 18 -1
29 12 38 24 18 38 5 52 -48z m-1381 27 c45 -30 1 -30 -60 0 l-53 26 43 -4 c23
-2 55 -12 70 -22z m-148 -7 c98 -24 181 -67 243 -126 42 -41 57 -62 57 -83 0
-18 5 -28 14 -28 8 0 49 -16 92 -35 86 -39 107 -43 102 -18 -2 11 -31 29 -78
48 -70 29 -77 34 -110 90 -20 34 -53 72 -77 89 -63 44 -52 76 19 55 18 -5 85
-19 148 -30 194 -33 465 -102 486 -123 16 -16 83 -176 74 -176 -4 0 -50 16
-101 36 -102 39 -213 54 -261 35 -34 -13 -133 -146 -185 -247 -21 -41 -44 -74
-50 -74 -23 0 -97 33 -140 62 -52 35 -92 96 -72 109 20 12 23 12 74 -13 31
-15 48 -19 55 -12 18 18 -1 44 -49 69 -42 21 -49 22 -76 9 -17 -7 -37 -19 -46
-25 -13 -10 -37 1 -132 59 -65 39 -130 73 -146 77 -33 7 -41 32 -41 122 0 63
20 107 58 127 34 19 71 19 142 3z m3413 -14 c55 -28 24 -64 -37 -43 -42 14
-47 19 -39 49 6 23 21 22 76 -6z m647 9 c49 -24 68 -62 53 -103 -12 -30 -10
-36 17 -77 17 -25 30 -52 30 -60 0 -27 -61 -142 -75 -142 -19 0 -49 46 -41 65
3 8 16 15 30 15 29 0 44 19 25 31 -8 5 -36 9 -62 9 -33 0 -49 5 -53 15 -4 8
-13 15 -21 15 -8 0 -28 13 -44 30 -22 22 -29 35 -24 50 4 12 2 27 -5 34 -8 11
-7 18 5 30 12 12 36 16 91 16 41 0 74 4 74 9 0 22 -32 32 -91 29 -55 -3 -64
-1 -67 16 -2 10 2 22 10 27 23 15 111 10 148 -9z m-1821 -48 c12 -15 21 -33
21 -40 0 -44 -98 39 -100 84 0 19 53 -11 79 -44z m-1009 -32 c0 -5 -9 -17 -20
-27 -19 -18 -20 -17 -20 3 0 18 11 29 33 31 4 1 7 -3 7 -7z m2172 -24 c20 -20
21 -23 5 -26 -27 -5 -87 18 -87 34 0 23 57 17 82 -8z m-657 -30 c28 -11 54
-23 58 -27 4 -4 -19 -24 -53 -45 -64 -40 -103 -83 -121 -135 -9 -26 -15 -30
-33 -25 -27 8 -62 40 -87 81 -20 33 -20 34 -2 65 10 18 43 52 72 76 59 48 68
48 166 10z m1497 -10 c50 -15 53 -31 36 -155 l-14 -98 116 -18 c112 -17 277
-19 311 -3 33 15 87 -49 114 -134 l7 -23 -171 6 -171 5 -19 -24 c-10 -13 -22
-48 -26 -79 -6 -52 -8 -55 -43 -65 -20 -5 -54 -10 -74 -10 -30 0 -42 -6 -60
-30 -13 -18 -31 -30 -44 -30 -19 0 -24 8 -34 53 -7 28 -15 117 -17 197 -4 122
-2 155 14 204 21 67 38 80 53 41 13 -35 33 -22 25 16 -4 17 -18 57 -31 89 -33
81 -34 77 28 58z m-860 -25 c24 -21 23 -33 -3 -33 -29 0 -59 18 -59 35 0 20
39 19 62 -2z m-1372 -48 c123 -22 237 -52 304 -83 50 -22 61 -32 77 -69 20
-46 29 -52 49 -28 17 21 37 19 45 -5 5 -16 10 -18 31 -10 39 15 62 12 74 -10
14 -26 50 -241 50 -302 0 -26 -7 -65 -16 -87 l-16 -40 -86 6 c-48 3 -89 8 -91
10 -3 2 7 41 22 86 29 90 33 140 14 174 -20 36 -33 13 -33 -57 0 -50 -6 -79
-28 -127 -16 -35 -32 -63 -36 -63 -4 0 -8 35 -9 78 -1 42 -7 101 -13 130 -13
61 -67 174 -85 180 -21 6 -15 -45 12 -98 42 -83 49 -172 31 -368 -20 -217 -20
-253 4 -391 24 -137 25 -175 4 -195 -24 -25 -118 -20 -205 10 -41 14 -92 29
-114 33 -27 5 -39 12 -37 21 12 53 14 110 3 110 -7 0 -43 -15 -81 -32 -69 -33
-69 -33 -70 -74 l0 -41 -84 -16 c-45 -8 -101 -24 -122 -35 -21 -11 -59 -30
-84 -43 -25 -12 -52 -28 -60 -34 -8 -7 -42 -15 -74 -18 l-59 -6 -67 67 c-47
48 -79 93 -112 157 -38 75 -98 210 -98 222 0 1 28 -18 63 -43 76 -57 254 -144
308 -151 38 -6 41 -5 37 18 -2 20 -10 25 -48 29 -45 6 -278 119 -301 146 -20
24 11 17 90 -21 90 -43 151 -54 170 -31 20 24 -3 46 -49 46 -45 0 -123 26
-210 70 -36 18 -132 64 -213 101 -82 37 -185 93 -230 123 -83 55 -259 199
-265 216 -9 27 102 225 186 328 l35 44 71 -7 c86 -9 181 -37 261 -77 73 -37
135 -85 135 -104 0 -24 121 -167 132 -156 19 19 -15 71 -130 201 -26 30 -39
52 -32 56 13 8 73 -11 119 -37 49 -27 63 -8 23 31 -17 17 -38 31 -46 31 -28 0
-17 16 42 62 l59 46 79 -2 c57 -2 106 -11 174 -33 150 -49 202 -48 264 7 26
21 62 42 81 46 19 3 38 10 41 15 7 12 15 11 114 -6z m1352 -12 c30 -27 23 -43
-13 -33 -39 12 -43 15 -36 35 8 20 26 19 49 -2z m580 -65 c2 -9 0 -17 -4 -17
-34 -3 -38 1 -38 36 0 37 0 37 19 18 11 -11 21 -28 23 -37z m-1042 27 c23 -8
58 -15 77 -15 26 0 44 -10 81 -44 26 -24 65 -51 87 -60 22 -9 58 -34 80 -55
22 -21 55 -48 73 -60 31 -22 33 -26 30 -75 -3 -50 -4 -51 -37 -54 -19 -2 -55
-17 -79 -34 -96 -66 -230 -98 -413 -98 l-119 0 0 92 c0 62 -7 117 -21 171 -18
67 -20 81 -8 89 14 10 291 3 342 -8 21 -5 27 -3 27 10 0 26 -36 34 -172 41
-71 4 -128 10 -128 14 0 10 70 76 95 89 27 15 35 15 85 -3z m458 -35 c17 -11
32 -26 32 -33 0 -19 -41 -59 -84 -82 -34 -19 -36 -19 -55 0 -27 23 -26 33 1
37 15 2 24 13 31 38 9 35 24 60 36 60 3 0 21 -9 39 -20z m3205 11 c15 -2 47
-67 47 -97 0 -40 -17 -59 -63 -74 -52 -16 -112 -5 -137 27 -27 35 -25 57 9
106 28 41 30 42 82 40 30 -1 57 -2 62 -2z m-2635 -53 c17 -17 15 -28 -6 -28
-19 0 -42 18 -42 32 0 12 35 9 48 -4z m-8 -103 c0 -41 -2 -45 -24 -45 -32 0
-44 20 -17 27 24 6 28 21 6 29 -15 6 -20 35 -9 47 4 3 15 2 25 -4 14 -7 19
-21 19 -54z m184 -17 c3 -13 6 -38 6 -56 0 -28 -5 -35 -32 -47 -18 -7 -55 -16
-81 -20 -42 -6 -47 -10 -41 -27 4 -14 2 -18 -5 -14 -6 4 -11 22 -11 39 0 37
45 98 94 128 41 25 62 24 70 -3z m2146 -26 c29 -2 32 -4 17 -13 -21 -12 -129
-8 -134 6 -3 9 35 12 117 7z m-2360 -48 c6 -14 10 -53 9 -87 l-1 -62 -29 60
c-32 66 -35 85 -17 103 18 18 27 15 38 -14z m2587 -21 l54 -17 -3 -55 -3 -56
-76 -30 c-104 -41 -155 -77 -170 -119 -7 -20 -17 -32 -25 -29 -7 2 -21 -8 -31
-23 l-18 -28 -5 34 c-7 45 -38 48 -60 5 -8 -16 -16 -32 -18 -35 -2 -2 -13 9
-26 25 l-23 29 -23 -27 c-13 -15 -28 -27 -33 -27 -14 0 3 61 28 105 29 48 208
228 250 249 39 21 115 20 182 -1z m-1443 -59 c28 -4 45 -11 43 -18 -3 -8 -55
-10 -169 -9 l-165 3 2 -88 c1 -82 2 -88 26 -99 20 -11 1 -13 -121 -13 -208 0
-194 -8 -186 113 4 56 9 104 12 109 6 9 490 11 558 2z m1600 -10 c20 -52 -19
-102 -105 -134 -69 -26 -113 -59 -134 -101 -19 -36 -19 -126 0 -159 8 -14 14
-28 15 -31 0 -6 -51 -32 -54 -27 -11 19 -46 166 -46 194 0 47 37 84 113 112
124 47 177 88 177 138 0 27 25 33 34 8z m-2574 -4 c-20 -13 -33 -13 -25 0 3 6
14 10 23 10 15 0 15 -2 2 -10z m66 -46 c13 -50 -4 -132 -40 -201 -20 -37 -36
-71 -36 -75 0 -23 34 -2 78 48 49 56 49 56 107 58 53 1 60 -1 72 -24 19 -35
11 -135 -15 -194 l-22 -49 -98 6 c-124 8 -144 13 -140 41 3 18 -3 21 -42 24
-54 4 -100 41 -100 82 0 14 -9 42 -20 63 -29 54 -27 77 8 77 32 0 78 42 67 60
-4 6 -4 27 -1 46 l7 34 58 0 c35 0 65 6 77 15 27 20 33 19 40 -11z m884 -40
c0 -38 -15 -74 -31 -74 -5 0 -7 10 -5 23 3 12 8 39 11 60 7 46 25 39 25 -9z
m-1637 25 c12 -7 23 -13 25 -14 2 -2 -12 -38 -31 -82 -45 -105 -49 -130 -32
-222 12 -59 13 -86 5 -107 -6 -16 -49 -65 -94 -109 -57 -55 -99 -107 -133
-165 -40 -68 -55 -86 -77 -90 -21 -4 -31 -14 -40 -40 -7 -19 -33 -74 -58 -123
l-46 -87 -113 106 c-75 69 -115 115 -117 131 -2 13 16 99 39 192 23 92 40 175
36 184 -3 10 -18 23 -33 29 -24 11 -29 10 -50 -15 -28 -33 -40 -72 -62 -209
-9 -60 -21 -108 -27 -108 -5 0 -42 34 -80 75 -53 56 -78 75 -97 75 -14 0 -29
7 -32 16 -3 9 -6 91 -6 184 0 165 0 168 23 174 43 11 147 6 187 -10 51 -21 65
-15 92 41 19 39 26 45 52 45 83 1 347 31 391 44 28 9 80 33 115 55 68 42 121
52 163 30z m1527 -38 c0 -35 -4 -51 -16 -55 -31 -12 -35 -6 -28 42 8 56 11 62
30 62 10 0 14 -13 14 -49z m1821 -23 c20 -38 81 -269 74 -276 -18 -18 -47 47
-84 188 -16 58 -32 117 -36 130 -7 23 -6 24 9 11 10 -8 26 -32 37 -53z m-3187
17 c90 -16 186 -45 247 -76 l37 -18 4 -88 c5 -101 33 -177 70 -192 34 -13 253
-41 321 -41 32 0 78 5 103 11 37 9 48 9 68 -5 24 -15 25 -15 36 20 19 56 6
113 -52 228 -29 58 -49 108 -45 112 4 4 26 8 49 8 40 1 43 -1 41 -24 -4 -44 6
-67 44 -104 l37 -36 101 0 c105 0 132 -8 122 -34 -5 -13 -21 -16 -77 -16 l-70
0 0 -55 c0 -30 -4 -55 -9 -55 -6 0 -20 -18 -32 -40 -12 -22 -40 -51 -61 -65
-37 -25 -129 -65 -148 -65 -6 0 -10 23 -10 50 0 52 -12 64 -30 31 -14 -28 -12
-98 6 -183 l15 -73 -32 -27 c-33 -28 -107 -58 -142 -58 -10 0 -30 9 -44 20
-25 19 -27 19 -45 3 -16 -14 -35 -17 -101 -15 -67 2 -93 8 -142 32 -33 16 -78
33 -101 39 -44 12 -133 68 -201 127 -37 32 -44 34 -49 19 -11 -28 96 -121 191
-166 116 -54 198 -79 302 -92 50 -7 94 -15 98 -18 3 -4 3 -23 0 -43 l-7 -36
-54 0 c-50 0 -54 2 -54 24 0 26 -39 46 -90 46 -30 0 -45 -14 -85 -85 l-28 -49
17 -143 c10 -79 15 -147 11 -152 -3 -5 -38 15 -78 45 -39 30 -100 68 -133 85
-60 30 -63 33 -94 107 -17 43 -45 101 -61 131 -33 62 -35 78 -13 109 32 46
-17 58 -59 15 -14 -16 -34 -46 -44 -68 -21 -46 -97 -120 -113 -110 -6 4 -10
17 -8 29 3 25 -37 86 -57 86 -19 0 -47 -57 -75 -152 -13 -43 -28 -78 -33 -78
-17 0 -47 32 -47 49 0 32 60 143 80 148 11 3 39 39 66 87 76 132 142 224 205
287 64 64 78 70 86 39 6 -24 26 -26 43 -5 9 11 9 21 -4 46 -21 42 -26 305 -6
364 11 35 38 85 45 85 1 0 41 -7 89 -15z m3117 -81 c4 -21 16 -66 28 -98 11
-33 21 -67 21 -77 0 -22 -19 -35 -24 -17 -2 7 -16 49 -30 93 -28 87 -34 149
-13 143 6 -3 15 -22 18 -44z m-111 -14 c9 -18 49 -164 50 -182 0 -5 -9 -8 -20
-8 -14 0 -20 7 -20 23 0 12 -9 49 -21 82 -25 71 -17 137 11 85z m-1472 2 c6
-1 12 -6 12 -12 0 -6 -40 -10 -100 -10 -88 0 -112 5 -96 21 5 4 160 5 184 1z
m1387 -134 c17 -60 19 -78 5 -78 -15 0 -27 31 -35 89 -9 68 8 62 30 -11z m731
-15 c-17 -61 -36 -182 -36 -237 l0 -65 -35 6 c-31 5 -35 3 -41 -21 l-6 -27
-22 20 c-28 26 -53 27 -61 1 -16 -51 -31 -16 -69 155 -16 74 -21 114 -14 122
23 29 144 59 241 62 42 1 48 -1 43 -16z m110 -110 c50 -98 69 -181 61 -266
-10 -118 -61 -232 -102 -232 -15 0 -25 13 -39 55 -26 79 -28 343 -2 453 11 49
22 77 29 74 7 -2 30 -40 53 -84z m-589 10 c-31 -110 -47 -183 -47 -215 0 -32
-5 -40 -32 -54 -29 -15 -34 -15 -59 0 -22 13 -33 14 -52 5 -16 -7 -43 -8 -84
-2 -34 5 -71 6 -84 1 -13 -5 -65 -8 -117 -6 -89 3 -94 2 -112 -22 l-20 -25 0
27 c0 26 68 118 94 127 6 2 29 18 51 36 120 96 250 142 409 144 51 1 58 -1 53
-16z m119 -58 c38 -66 54 -138 54 -250 0 -142 -38 -265 -81 -265 -23 0 -66 52
-79 98 -23 76 -23 220 -1 329 27 131 38 155 62 142 10 -5 30 -29 45 -54z
m-8696 20 c24 -8 81 -19 128 -25 47 -5 90 -14 96 -20 5 -5 19 -10 29 -10 11 0
46 -18 78 -39 32 -22 82 -47 111 -57 76 -25 249 -145 352 -246 50 -48 100 -89
113 -93 13 -3 23 -11 23 -18 0 -7 13 -31 29 -53 36 -49 48 -84 28 -84 -42 0
-119 33 -139 60 -16 22 -33 31 -65 36 -42 6 -44 8 -38 35 6 28 6 29 -34 29
-39 0 -53 11 -31 25 23 14 9 35 -28 41 -26 4 -41 13 -48 27 -7 17 -20 23 -54
27 -43 5 -45 6 -42 34 l4 29 -46 -6 c-46 -7 -47 -6 -44 21 3 26 2 27 -44 24
-46 -4 -48 -3 -48 24 0 26 -1 27 -50 21 -27 -3 -49 -3 -48 1 1 4 -1 17 -6 30
-6 18 -12 21 -33 16 -15 -4 -28 -2 -33 6 -10 16 -83 33 -140 32 l-45 -1 -27
67 c-16 38 -28 71 -28 75 0 11 35 8 80 -8z m6464 -41 c3 -9 6 -79 6 -156 l0
-140 -22 6 c-13 4 -51 10 -85 13 -70 6 -85 0 -170 -77 -37 -33 -52 -55 -57
-83 -6 -34 -9 -37 -41 -37 -19 0 -35 5 -35 10 0 6 7 10 15 10 24 0 18 27 -7
34 -19 5 -21 8 -8 16 8 5 24 10 34 10 27 0 101 64 116 100 11 26 10 37 -3 70
-14 37 -14 39 7 58 11 11 57 38 101 61 63 32 85 49 103 81 24 43 36 49 46 24z
m622 -178 c3 -16 31 -54 60 -85 l55 -56 -23 -17 c-12 -9 -61 -29 -107 -44 -47
-15 -120 -48 -163 -75 -75 -47 -78 -48 -78 -25 0 13 -9 35 -21 50 -22 28 -21
56 6 90 13 17 18 18 38 7 20 -10 30 -10 60 3 31 13 37 20 37 45 0 26 5 32 33
39 26 7 33 14 35 39 3 26 -1 32 -22 37 -45 11 -28 25 29 23 51 -2 55 -4 61
-31z m817 -17 c2 -32 0 -34 -36 -37 l-38 -3 17 33 c35 68 54 71 57 7z m-3510
-141 c46 -42 47 -43 37 -83 -5 -22 -13 -96 -17 -164 l-6 -125 -29 35 c-16 19
-46 63 -67 99 -22 36 -55 85 -74 109 l-35 44 19 37 c11 21 22 66 24 101 2 35
5 66 5 67 0 5 77 -60 143 -120z m-603 87 c0 -17 -35 -55 -50 -55 -20 0 -22 31
-5 50 21 24 55 26 55 5z m-4976 -66 c12 -34 2 -70 -29 -107 l-24 -29 16 -89
c12 -64 23 -95 39 -111 13 -13 28 -23 34 -23 13 0 13 111 -1 201 -6 39 -8 73
-5 76 3 3 27 8 54 11 36 3 51 0 61 -12 7 -9 20 -16 27 -16 93 0 227 -130 339
-330 20 -36 51 -81 69 -100 48 -52 80 -97 183 -264 52 -83 114 -194 139 -246
24 -52 60 -125 79 -162 19 -37 35 -75 35 -85 0 -10 11 -42 25 -71 14 -30 25
-63 25 -73 0 -29 -57 -187 -91 -253 -26 -51 -29 -62 -19 -90 6 -19 8 -58 4
-98 -6 -58 -4 -69 10 -74 33 -13 41 13 41 129 0 110 1 114 45 219 25 59 48
108 52 108 19 0 17 -50 -6 -139 -14 -55 -26 -108 -26 -118 0 -10 -9 -35 -20
-56 -19 -36 -21 -54 -18 -235 2 -179 0 -205 -21 -282 -16 -61 -25 -132 -32
-250 -4 -91 -11 -177 -15 -191 -3 -15 1 -54 10 -88 33 -129 24 -158 -97 -298
-55 -63 -74 -79 -84 -71 -20 16 -16 53 11 106 13 26 27 57 30 70 12 37 -27 27
-67 -17 -63 -70 -58 -133 19 -227 20 -24 35 -46 33 -48 -10 -8 -241 -87 -294
-101 -32 -8 -85 -15 -117 -15 -62 0 -67 -4 -41 -32 12 -13 30 -18 70 -18 77 0
130 15 287 82 76 32 146 56 155 53 17 -5 51 -55 51 -75 0 -7 -8 -9 -20 -5 -17
5 -20 2 -20 -22 0 -28 -5 -31 -142 -82 -200 -75 -312 -101 -433 -104 l-100 -2
-12 35 c-6 19 -12 85 -12 146 l-1 112 55 4 c30 3 58 7 61 11 14 14 -10 27 -50
27 l-43 0 4 223 c3 122 9 247 15 277 14 74 25 171 37 320 10 126 52 318 77
355 8 11 14 36 14 56 0 54 43 192 117 379 36 91 84 219 108 286 23 66 50 134
59 151 8 17 20 64 26 105 6 40 18 93 26 117 16 51 18 87 4 96 -18 11 -42 -46
-51 -124 -6 -53 -28 -136 -67 -248 -70 -199 -154 -413 -163 -413 -13 0 -30 85
-39 202 -5 68 -18 166 -28 218 -11 52 -22 114 -26 138 l-6 42 36 -15 c46 -19
94 -20 94 -1 0 14 -34 31 -85 41 -62 13 -86 28 -105 66 -11 21 -28 43 -37 48
-18 11 -16 12 27 14 33 2 39 32 8 41 -13 3 -32 6 -43 6 -11 0 -26 10 -33 21
-11 18 -20 20 -50 16 -32 -6 -40 -2 -75 35 -78 82 -125 226 -113 346 4 34 3
62 -1 62 -5 0 -19 -7 -32 -17 -23 -15 -23 -19 -16 -97 5 -45 9 -106 10 -136 1
-30 3 -63 3 -74 1 -10 34 -51 73 -91 l71 -74 -36 -15 c-20 -8 -36 -22 -36 -30
0 -10 -9 -16 -23 -16 -13 0 -32 -7 -43 -15 -19 -15 -19 -15 1 -31 29 -22 77
-10 165 42 41 24 76 40 78 35 6 -18 -51 -126 -95 -179 -49 -61 -54 -82 -19
-82 20 0 37 18 87 90 33 50 65 90 69 90 5 0 25 -20 46 -45 33 -41 36 -48 25
-71 -6 -14 -9 -29 -6 -33 13 -22 36 -201 50 -392 9 -118 20 -237 26 -264 11
-61 3 -109 -46 -265 -27 -86 -49 -135 -89 -195 -30 -44 -57 -90 -60 -102 -4
-13 -20 -30 -36 -40 -43 -25 -58 -82 -74 -283 -17 -202 -74 -486 -106 -528
-11 -14 -20 -35 -20 -48 0 -19 -9 -25 -57 -39 -183 -53 -224 -47 -438 65
l-150 79 3 43 c2 24 7 104 11 178 7 101 15 154 34 210 16 47 33 138 45 240 11
91 27 183 35 205 105 281 145 356 251 476 45 52 188 272 222 344 33 70 40 129
20 160 -9 14 -25 25 -35 25 -21 0 -32 -24 -55 -114 -14 -54 -47 -106 -69 -106
-20 0 9 400 35 493 9 28 8 41 0 49 -7 7 -12 31 -12 54 0 24 -5 55 -11 71 -6
15 -14 81 -18 145 -5 88 -11 122 -24 136 -24 26 -21 32 12 32 40 0 49 19 21
40 -26 19 -27 8 36 273 34 140 37 147 60 147 14 0 35 -5 47 -11 16 -9 22 -9
25 0 2 6 17 18 33 26 31 17 37 43 19 90 -6 15 -7 31 -4 36 11 18 38 5 48 -22z
m9206 21 c109 -14 278 -57 310 -79 14 -10 55 -28 92 -40 37 -12 78 -33 90 -47
15 -15 34 -24 55 -24 17 0 34 -4 38 -10 3 -5 45 -32 92 -60 103 -61 140 -90
244 -192 147 -145 271 -317 355 -492 51 -107 104 -253 104 -287 0 -22 -43 -43
-71 -34 -42 13 -129 66 -129 79 0 7 -20 31 -45 54 -25 22 -45 46 -45 51 0 6
14 11 32 11 30 0 31 1 14 19 -10 11 -31 23 -46 26 -42 9 -58 32 -34 49 17 13
16 15 -19 36 -31 18 -36 26 -31 46 5 21 1 26 -30 39 -39 17 -48 35 -16 35 11
0 20 7 20 15 0 18 -35 41 -78 50 -38 8 -50 28 -32 50 17 20 -9 50 -55 65 -23
8 -37 20 -44 41 -7 21 -23 35 -56 50 -31 14 -45 26 -45 39 0 11 -4 20 -10 20
-5 0 -27 16 -49 35 -21 19 -46 35 -55 35 -22 0 -53 16 -89 46 -16 13 -40 24
-53 24 -17 0 -27 8 -34 26 -10 25 -13 26 -65 19 -55 -6 -66 0 -43 23 10 10 10
15 -2 22 -21 14 -51 12 -100 -5 -50 -18 -61 -13 -35 15 16 18 16 20 1 26 -17
6 -74 1 -128 -12 -25 -6 -28 -4 -28 20 0 23 -4 26 -34 26 -18 0 -50 -7 -69
-15 -20 -8 -51 -15 -68 -15 -27 0 -30 2 -18 16 29 36 -49 41 -113 8 -21 -11
-33 -12 -47 -4 -40 21 -92 9 -137 -31 -17 -16 -25 -18 -53 -8 -26 9 -40 8 -76
-5 -24 -10 -48 -23 -55 -30 -6 -8 -19 -12 -29 -9 -10 3 -41 -5 -70 -17 -28
-12 -57 -20 -66 -16 -19 7 -64 -9 -90 -33 -11 -10 -38 -24 -60 -31 -22 -7 -75
-39 -118 -71 -44 -33 -89 -59 -100 -59 -27 0 -86 -35 -93 -55 -3 -8 -44 -32
-90 -55 -50 -24 -93 -52 -106 -70 -16 -22 -30 -30 -52 -30 -46 0 -130 -43
-160 -82 -14 -19 -48 -47 -76 -62 -27 -15 -58 -38 -69 -52 -11 -14 -46 -44
-78 -66 -32 -22 -80 -62 -108 -88 -33 -32 -73 -58 -116 -75 -37 -14 -85 -42
-107 -61 -22 -19 -51 -34 -64 -34 -24 0 -67 -25 -81 -46 -4 -7 -33 -22 -65
-34 -31 -12 -66 -29 -77 -39 -11 -10 -58 -38 -105 -63 -47 -25 -136 -75 -197
-111 -64 -37 -150 -76 -200 -92 -49 -16 -98 -37 -111 -49 -26 -23 -36 -16 -50
37 -8 28 -8 39 1 42 7 2 30 9 52 16 51 15 114 46 140 69 11 10 38 23 60 30 57
18 136 60 240 126 50 31 128 80 175 107 47 28 265 186 485 352 366 275 582
426 755 530 36 22 85 54 109 73 76 57 336 179 473 220 206 63 542 96 738 72z
m-4075 -117 c165 -188 455 -582 455 -618 0 -12 10 -36 23 -54 12 -17 35 -49
50 -70 16 -22 37 -73 48 -117 11 -43 21 -80 24 -82 3 -3 14 3 25 13 20 18 20
18 20 -58 0 -66 5 -90 40 -176 22 -54 40 -105 40 -113 0 -7 16 -58 36 -113 19
-55 46 -152 60 -215 69 -319 86 -358 248 -558 78 -97 92 -119 101 -162 4 -19
22 -62 40 -96 51 -97 166 -586 177 -754 l3 -45 -70 -6 c-39 -4 -116 -19 -173
-34 -110 -28 -132 -28 -132 4 0 34 -82 180 -163 293 -43 59 -91 134 -107 167
-27 54 -61 91 -82 91 -16 0 -7 -49 11 -62 10 -7 39 -53 64 -103 25 -49 60
-110 76 -135 17 -25 31 -51 31 -59 0 -7 11 -22 24 -32 20 -16 116 -184 116
-203 0 -3 -47 -6 -105 -6 -98 0 -105 1 -105 20 0 11 -4 20 -10 20 -5 0 -10 -9
-10 -20 0 -26 -23 -26 -66 0 -33 21 -50 51 -40 69 3 5 -14 51 -38 103 -44 96
-73 194 -64 219 3 8 -1 26 -8 40 -7 15 -23 66 -35 115 -12 49 -30 105 -39 124
-9 19 -17 51 -19 70 -1 19 -12 69 -25 110 -13 41 -26 106 -30 144 -4 38 -20
103 -35 145 -40 105 -48 134 -61 229 -6 46 -24 114 -41 152 -16 38 -33 102
-39 142 -6 40 -13 87 -16 103 l-6 30 27 -25 c15 -14 38 -47 52 -75 39 -75 160
-283 202 -345 29 -42 44 -55 64 -56 14 -1 53 -7 87 -14 54 -11 63 -11 77 3 14
14 8 19 -66 57 -102 51 -148 98 -230 237 -35 59 -121 196 -191 303 -103 157
-190 305 -190 322 0 2 29 2 63 0 71 -4 137 17 137 42 0 16 -5 17 -80 21 -17 1
-33 5 -36 8 -8 7 57 40 121 61 70 23 111 50 130 86 14 28 14 31 0 37 -10 3
-28 -6 -48 -25 -18 -17 -45 -34 -62 -37 -16 -4 -65 -18 -108 -31 -43 -13 -80
-24 -83 -24 -2 0 -4 23 -4 52 0 63 -19 178 -30 178 -20 0 -33 -38 -37 -108 -6
-107 -9 -120 -41 -136 -58 -29 -129 -30 -246 0 -26 6 -27 5 -24 -22 2 -22 13
-34 41 -49 43 -23 52 -42 38 -78 -9 -22 -7 -28 9 -37 10 -5 30 -10 45 -10 14
0 28 -7 31 -15 4 -8 12 -15 20 -15 11 0 14 -19 14 -82 0 -46 6 -103 14 -128
20 -65 34 -196 46 -415 6 -104 16 -219 21 -254 9 -56 8 -66 -6 -74 -13 -7 -14
-12 -4 -23 6 -8 17 -14 25 -14 21 0 43 -40 74 -137 64 -199 103 -461 119 -788
8 -171 8 -191 -7 -203 -13 -10 -74 -11 -282 -6 -300 7 -306 9 -350 84 -36 61
-81 69 -49 8 14 -25 6 -33 -19 -19 -27 15 -38 51 -62 214 -20 141 -24 237 -11
271 4 10 4 50 -1 90 -25 233 -39 438 -34 486 3 30 17 100 32 155 17 67 25 128
26 185 0 81 -2 92 -49 200 -70 160 -113 356 -114 519 0 53 -4 119 -9 146 -4
28 -4 75 1 107 12 72 153 476 207 590 42 91 119 213 153 244 10 9 19 27 19 39
0 25 17 35 57 35 14 0 43 5 64 12 34 10 42 9 60 -8 45 -41 81 -146 94 -276 7
-71 16 -83 36 -46 17 31 4 117 -36 235 -19 55 -35 106 -35 112 0 6 15 11 34
11 31 0 43 -9 111 -87z m2475 66 c67 -30 80 -46 80 -95 0 -24 -5 -46 -10 -49
-6 -4 -30 15 -54 41 -24 26 -68 59 -97 73 -29 15 -54 32 -57 39 -6 20 87 14
138 -9z m-2319 -49 c34 0 38 -4 67 -57 17 -32 40 -63 51 -70 33 -20 158 -241
196 -348 20 -54 52 -128 71 -163 39 -69 58 -122 44 -122 -15 0 -56 61 -98 145
-22 45 -60 105 -85 135 -24 30 -65 88 -91 129 -26 40 -102 141 -169 223 -67
82 -123 153 -125 157 -1 5 21 0 50 -10 29 -10 69 -18 89 -19z m-655 -89 c-79
-118 -144 -270 -236 -549 -91 -278 -104 -330 -115 -447 -8 -85 -22 -145 -35
-145 -14 0 -12 42 5 135 9 48 19 198 24 375 10 313 12 327 76 534 l27 88 38
-6 c50 -8 121 15 195 62 33 21 61 35 63 30 2 -4 -17 -39 -42 -77z m2885 48
c16 -25 5 -43 -34 -58 -55 -21 -67 -15 -67 32 0 24 2 46 5 49 10 9 87 -9 96
-23z m-303 -26 c2 -8 -6 -13 -22 -13 -17 0 -26 5 -26 16 0 19 41 16 48 -3z
m-1450 -57 c31 -24 77 -65 101 -90 l44 -45 -79 -200 c-43 -110 -82 -201 -85
-201 -4 0 -23 32 -44 70 -35 69 -36 72 -25 123 6 29 14 127 17 220 3 92 8 167
10 167 3 0 30 -20 61 -44z m605 -57 l26 -51 -34 5 c-38 6 -95 42 -95 59 0 5 7
7 15 4 8 -3 22 -9 30 -12 11 -5 15 1 15 20 0 39 14 31 43 -25z m-177 -89 c10
0 14 -12 14 -38 0 -21 5 -43 12 -50 19 -19 54 -14 71 11 l15 22 64 -32 c34
-18 72 -34 83 -38 16 -4 28 -26 48 -88 15 -45 27 -87 27 -93 0 -9 -313 -149
-335 -149 -15 0 -33 82 -34 154 -1 56 -5 67 -32 99 -60 69 -76 136 -33 146 14
4 33 20 42 36 10 17 23 28 30 25 8 -3 20 -5 28 -5z m-7046 -81 c0 -5 -12 -9
-27 -9 -27 1 -27 1 -9 15 19 14 36 12 36 -6z m6821 -3 c15 -33 4 -86 -27 -131
-19 -29 -26 -53 -28 -104 -2 -36 -7 -96 -11 -133 l-8 -68 -58 0 c-33 0 -59 2
-59 5 0 9 99 292 132 378 16 42 34 77 39 77 5 0 14 -11 20 -24z m3216 3 c85
-16 255 -75 354 -124 92 -45 194 -116 210 -147 14 -25 5 -23 -62 18 -163 98
-408 190 -578 214 -52 8 -132 11 -210 7 -276 -12 -508 -110 -756 -319 -149
-126 -617 -614 -670 -699 -17 -27 -66 -90 -110 -141 -179 -208 -235 -257 -315
-278 -25 -6 -66 -20 -92 -30 -37 -16 -70 -20 -160 -20 -137 1 -128 12 34 41
76 14 130 30 169 50 115 61 340 283 618 609 156 182 471 498 574 574 159 118
282 176 472 222 58 14 140 29 182 34 89 10 255 5 340 -11z m-9637 -35 c13 -14
12 -15 -15 -9 -48 11 -55 14 -55 26 0 15 50 3 70 -17z m1830 -14 c22 -13 -27
-29 -67 -23 -33 5 -45 27 -20 36 14 6 65 -2 87 -13z m6124 10 l49 0 -19 -21
c-34 -38 -57 -43 -214 -51 -85 -3 -164 -8 -174 -10 -23 -4 -47 45 -30 62 18
18 119 29 229 25 61 -3 132 -5 159 -5z m-405 -102 c34 -32 83 -65 115 -78 30
-13 53 -27 50 -32 -3 -4 -33 -27 -67 -50 -53 -36 -68 -42 -103 -40 -63 5 -132
-35 -199 -115 -30 -36 -35 -47 -24 -54 16 -10 -7 -32 -102 -98 l-56 -39 3 50
c3 41 10 58 43 97 24 28 44 66 50 90 12 53 47 91 128 140 56 34 60 38 43 49
-21 13 -60 82 -60 105 0 27 24 39 72 34 40 -3 55 -12 107 -59z m-5396 16 c129
-33 252 -110 444 -278 l98 -86 309 -5 c170 -3 311 -7 314 -10 3 -2 -7 -9 -22
-15 -18 -6 -136 -8 -343 -3 l-316 6 -105 91 c-58 50 -119 103 -137 118 -72 61
-181 129 -246 153 -64 25 -95 45 -69 45 7 0 39 -7 73 -16z m4955 -14 c41 -25
42 -50 2 -50 -24 0 -33 6 -40 26 -19 50 -12 54 38 24z m3139 -166 c-3 -3 -12
-4 -19 -1 -8 3 -5 6 6 6 11 1 17 -2 13 -5z m53 -55 c0 -6 -4 -7 -10 -4 -5 3
-10 11 -10 16 0 6 5 7 10 4 6 -3 10 -11 10 -16z m-8451 -76 c34 -36 76 -96 93
-131 28 -57 33 -78 36 -164 l4 -98 -36 0 -37 0 7 49 c8 65 -14 140 -67 221
-67 104 -99 190 -70 190 5 0 37 -30 70 -67z m5341 57 c0 -3 -6 -15 -14 -26
-12 -16 -27 -19 -93 -19 -70 0 -87 -4 -163 -39 -84 -39 -190 -60 -190 -38 0
17 23 29 67 37 23 3 74 26 114 50 l72 43 104 -1 c56 -1 103 -4 103 -7z m3239
-76 c55 -41 141 -143 141 -166 0 -16 -86 61 -155 138 -37 41 -62 74 -57 74 6
0 38 -21 71 -46z m-4229 -15 c0 -6 -4 -7 -10 -4 -5 3 -10 11 -10 16 0 6 5 7
10 4 6 -3 10 -11 10 -16z m140 -19 c11 -7 9 -11 -13 -19 -16 -6 -33 -11 -38
-11 -5 0 -9 -7 -9 -15 0 -23 -17 -18 -24 8 -11 41 -7 47 32 47 20 0 44 -4 52
-10z m-1683 -6 c-3 -3 -12 -4 -19 -1 -8 3 -5 6 6 6 11 1 17 -2 13 -5z m-4796
-29 c87 -23 173 -68 231 -123 41 -39 48 -50 43 -71 -4 -14 -8 -28 -10 -30 -2
-2 -23 15 -47 38 -139 136 -391 181 -605 110 -168 -56 -330 -216 -378 -374
-19 -62 -35 -178 -28 -205 9 -33 23 -12 23 33 0 23 9 76 21 117 59 214 200
352 404 395 202 42 438 -16 550 -136 62 -66 61 -93 -2 -45 -119 91 -177 130
-211 142 -23 8 -85 13 -162 13 -109 0 -132 -3 -183 -23 -131 -54 -229 -132
-271 -217 -13 -24 -36 -66 -52 -94 -28 -48 -29 -55 -27 -162 1 -105 0 -113
-18 -113 -27 0 -23 -19 6 -30 28 -11 37 -27 61 -115 12 -44 26 -68 51 -90 19
-16 55 -49 81 -71 57 -50 112 -79 189 -99 66 -17 196 -20 273 -5 29 6 55 9 57
7 1 -2 -10 -39 -26 -83 l-29 -79 -43 -8 c-24 -4 -75 -5 -114 -2 -260 23 -468
164 -575 390 -49 104 -64 170 -64 280 1 281 188 535 466 632 40 14 96 29 123
34 68 11 191 3 266 -16z m3639 -5 c0 -34 -6 -37 -32 -13 -26 23 -23 43 7 43
21 0 25 -5 25 -30z m280 20 c0 -24 -207 -27 -232 -2 -9 9 13 12 110 12 71 0
122 -4 122 -10z m-400 -4 c0 -11 -19 -15 -25 -6 -3 5 1 10 9 10 9 0 16 -2 16
-4z m245 -56 c3 -6 -5 -10 -19 -10 -14 0 -28 5 -31 10 -3 6 5 10 19 10 14 0
28 -4 31 -10z m5989 -14 c103 -33 248 -141 308 -229 23 -34 54 -74 69 -90 19
-18 31 -46 39 -85 7 -31 21 -88 32 -126 17 -57 20 -84 14 -155 -11 -152 -48
-251 -128 -346 -28 -33 -58 -68 -66 -78 -24 -28 -7 -31 37 -7 65 37 124 131
162 261 18 59 22 102 23 215 l1 141 62 69 c33 38 74 77 91 86 l29 18 16 -58
c29 -102 40 -204 34 -317 -6 -131 -33 -241 -86 -350 -65 -136 -242 -355 -286
-355 -8 0 -32 -16 -52 -35 -20 -19 -71 -49 -112 -66 -307 -129 -637 -105 -899
64 -228 148 -378 364 -421 611 -12 64 -15 257 -5 294 4 12 11 22 17 22 6 0 41
-18 78 -41 37 -22 80 -44 96 -48 l28 -7 6 -115 c5 -93 11 -128 36 -189 39
-100 100 -189 196 -282 71 -71 85 -80 156 -102 143 -45 233 -59 360 -54 99 4
127 9 192 35 80 31 189 99 249 155 20 18 31 30 26 26 -6 -5 -22 -8 -38 -8 -18
0 -44 -15 -77 -44 -27 -24 -60 -47 -73 -51 -13 -4 -63 -23 -113 -42 l-90 -35
-125 6 c-221 11 -314 49 -450 186 -129 131 -189 245 -211 403 -21 155 11 293
100 429 98 150 263 264 436 302 86 19 267 15 339 -8z m-5661 -23 c-7 -2 -19
-2 -25 0 -7 3 -2 5 12 5 14 0 19 -2 13 -5z m313 -32 c28 -16 -44 -13 -126 4
l-65 15 86 -4 c48 -2 95 -9 105 -15z m361 -37 c2 -6 -4 -11 -14 -11 -29 -2
-45 6 -38 18 8 13 47 8 52 -7z m6026 -6 c12 -6 50 -32 83 -58 34 -26 95 -66
137 -89 62 -34 84 -41 130 -41 62 0 93 -21 58 -39 -30 -16 -91 -13 -137 8 -54
24 -273 173 -303 205 -21 22 -22 26 -7 26 9 0 27 -5 39 -12z m-11008 -45 c0
-58 21 -76 93 -81 55 -4 60 -2 83 25 33 40 45 46 66 32 14 -8 17 -21 15 -53
-4 -40 -1 -45 48 -89 29 -26 56 -47 61 -47 6 0 20 7 33 15 22 15 24 14 40 -9
17 -27 14 -45 -16 -88 -23 -34 -23 -75 2 -116 27 -43 25 -67 -7 -109 -19 -25
-29 -53 -35 -99 -9 -80 -22 -104 -53 -104 -14 0 -39 -13 -57 -29 -30 -27 -33
-34 -33 -90 0 -52 -3 -61 -20 -65 -37 -10 -42 -6 -49 34 -6 38 -8 40 -42 40
-40 0 -43 23 -4 28 61 9 188 129 229 216 56 120 49 221 -22 328 -49 74 -52 77
-137 119 -81 40 -201 52 -263 25 -69 -28 -195 -125 -243 -186 -26 -33 -49 -60
-52 -60 -3 0 -23 8 -44 18 -36 16 -38 19 -32 52 7 44 17 55 34 35 18 -21 83
-20 103 3 9 10 20 32 23 50 5 25 1 38 -20 62 -14 18 -26 35 -26 39 0 4 13 15
29 24 29 17 30 17 50 -5 12 -12 21 -25 21 -30 0 -4 19 -8 43 -8 69 0 115 58
102 127 -5 29 -3 32 22 36 53 8 58 4 58 -40z m4838 40 c-13 -2 -35 -2 -50 0
-16 2 -5 4 22 4 28 0 40 -2 28 -4z m-262 -19 c-63 -8 -117 -12 -120 -8 -15 15
34 24 129 23 l105 -1 -114 -14z m-631 -33 c0 -20 -60 -34 -103 -24 l-42 10 35
10 c43 14 110 16 110 4z m234 -1 c-12 -5 -62 -5 -110 -1 l-89 8 110 1 c71 0
102 -2 89 -8z m-399 -10 c18 -8 17 -9 -7 -9 -15 -1 -39 -6 -55 -13 -28 -11
-140 -20 -418 -34 -94 -4 -145 -11 -155 -20 -12 -10 -72 -14 -248 -16 -128 -2
-232 0 -232 3 0 12 45 19 125 19 44 0 166 9 270 21 105 11 271 23 370 26 99 3
203 11 230 19 58 15 92 16 120 4z m3528 -9 c6 -6 1 -14 -13 -21 -23 -12 -290
-11 -290 1 0 4 3 15 7 25 6 15 19 16 147 11 77 -4 144 -11 149 -16z m-1368
-67 c8 -32 44 -115 79 -184 63 -125 82 -192 91 -330 1 -19 14 -80 29 -135 15
-55 30 -128 33 -161 l6 -61 -103 -8 c-74 -5 -105 -4 -110 5 -4 6 -10 60 -13
118 -5 100 -56 470 -76 555 -6 23 -5 51 0 70 5 18 8 64 7 104 -1 47 3 77 12
88 18 22 27 9 45 -61z m-144 51 c-1 -15 -24 -12 -29 3 -3 9 2 13 12 10 10 -1
17 -7 17 -13z m-5600 -121 c92 -51 148 -158 149 -285 0 -137 -47 -218 -162
-279 -55 -30 -72 -34 -138 -35 -89 0 -157 27 -230 93 -52 46 -79 114 -88 219
-6 84 12 143 61 199 100 113 287 154 408 88z m2859 15 c553 -9 698 -9 753 2
56 10 93 10 205 -1 91 -8 272 -12 539 -11 361 2 402 1 397 -13 -5 -12 -22 -16
-78 -16 -39 0 -309 -3 -601 -7 -780 -9 -761 -9 -1400 0 -337 5 -607 13 -630
19 -37 9 -38 11 -20 24 23 17 -17 17 835 3z m2080 -70 c0 -40 7 -85 15 -106 9
-20 25 -73 36 -117 11 -45 34 -123 51 -175 39 -119 40 -152 4 -224 -23 -47
-27 -66 -22 -100 3 -23 3 -47 -2 -53 -4 -6 -37 -17 -75 -23 -37 -6 -79 -16
-92 -21 -25 -9 -25 -9 -25 48 0 175 38 656 61 772 21 104 49 104 49 -1z m1893
71 c84 0 107 -9 70 -28 -10 -5 -94 -13 -188 -16 -143 -6 -173 -5 -190 7 -11 9
-16 19 -12 24 9 9 179 22 212 17 11 -2 59 -4 108 -4z m3781 -42 c37 -76 49
-178 43 -353 -5 -168 -20 -231 -86 -386 -89 -205 -208 -354 -373 -467 -203
-139 -463 -209 -700 -190 -434 35 -812 323 -952 724 -66 188 -88 494 -37 494
5 0 11 -75 13 -167 5 -156 7 -175 37 -263 18 -52 50 -129 73 -170 47 -87 166
-260 178 -260 4 0 38 -29 76 -64 52 -48 101 -79 199 -129 221 -111 317 -133
530 -124 219 10 440 82 559 181 34 28 82 67 107 86 99 76 162 160 222 297 66
151 91 237 108 368 14 119 7 244 -20 350 -34 132 -23 168 23 73z m-64 -14 c29
-85 44 -193 44 -324 0 -192 -34 -321 -115 -444 -27 -42 -52 -89 -55 -105 -9
-43 -229 -256 -320 -309 -160 -95 -319 -135 -529 -135 -129 0 -164 4 -247 26
-180 47 -329 131 -465 260 -135 129 -226 276 -288 467 -25 77 -28 100 -29 240
-1 149 0 155 19 155 25 0 31 -36 17 -102 -12 -56 6 -199 39 -308 83 -275 309
-515 594 -632 252 -102 520 -97 757 15 191 90 286 169 397 332 146 216 176
311 176 565 0 145 -3 182 -22 252 -27 99 -28 105 -6 101 9 -2 23 -24 33 -54z
m710 -94 c0 -13 -1 -13 -10 0 -5 8 -10 22 -10 30 0 13 1 13 10 0 5 -8 10 -22
10 -30z m-6435 -102 c-3 -51 -7 -149 -10 -218 -4 -96 -9 -128 -21 -140 -15
-14 -16 0 -11 160 5 168 21 290 38 290 5 0 6 -42 4 -92z m-3027 -119 c14 -46
51 -158 100 -299 20 -56 32 -112 35 -162 l4 -78 -36 0 c-20 0 -72 9 -116 18
l-79 18 -13 110 c-17 138 -12 188 32 308 19 53 35 106 35 117 0 35 24 15 38
-32z m-2406 14 c11 -43 -22 -60 -43 -22 -9 17 -8 23 2 30 22 14 36 11 41 -8z
m2696 -225 c9 -9 330 -13 1304 -15 980 -3 1295 -7 1300 -16 15 -22 4 -51 -22
-57 -14 -3 -387 -1 -830 3 -620 7 -827 6 -900 -3 -74 -10 -138 -10 -285 -1
-105 6 -281 11 -392 11 l-202 0 -7 34 c-9 49 7 71 34 44z m4652 -68 c0 -5 -8
-10 -17 -10 -15 0 -16 2 -3 10 19 12 20 12 20 0z m190 -10 c0 -5 -4 -10 -10
-10 -5 0 -10 5 -10 10 0 6 5 10 10 10 6 0 10 -4 10 -10z m-7133 -85 c-2 -33
-4 -36 -32 -33 -53 5 -38 68 16 68 14 0 17 -8 16 -35z m5218 -217 c4 -29 5
-75 3 -103 l-3 -50 -1655 -2 c-910 -2 -1666 -5 -1678 -8 -23 -6 -24 -4 -17 37
15 102 28 150 40 154 7 3 60 -10 117 -30 142 -48 150 -49 160 -8 l9 32 117 2
c64 1 135 1 157 0 22 -1 146 -2 275 -2 129 0 285 -4 345 -9 79 -6 116 -5 130
4 15 8 146 9 520 3 275 -4 565 -7 645 -5 80 1 224 2 320 2 167 0 176 -1 208
-23 l33 -24 87 35 c85 34 114 43 159 46 19 1 22 -6 28 -51z m3568 -46 c24 -37
51 -73 60 -81 9 -7 17 -20 17 -29 0 -14 -73 -14 -697 -7 -384 4 -763 10 -842
14 -141 6 -144 7 -164 32 -10 15 -21 47 -24 72 l-5 45 493 4 c272 2 531 0 575
-4 45 -4 172 -9 282 -10 196 -3 202 -2 223 19 13 12 26 20 31 17 4 -3 27 -35
51 -72z m-2527 13 c7 -18 16 -54 19 -81 l7 -50 -112 1 -112 2 -24 69 c-13 38
-24 72 -24 76 0 10 46 15 144 15 l89 -1 13 -31z m-5999 -1058 c158 -78 224
-96 285 -77 62 18 169 29 166 16 -2 -6 -17 -35 -33 -63 -27 -47 -34 -53 -63
-53 -18 0 -45 -9 -61 -21 -48 -35 -118 -28 -286 29 -80 28 -155 58 -166 68
-16 14 -19 31 -19 100 0 98 -20 98 177 1z m7057 -21 c25 -10 37 -24 46 -51 7
-20 10 -39 7 -42 -3 -3 -42 -9 -86 -14 -45 -5 -132 -23 -194 -40 -121 -33
-303 -49 -366 -32 -38 10 -66 42 -77 87 l-7 29 94 -9 c139 -13 193 -9 236 16
20 12 60 26 88 30 27 5 79 16 115 24 84 19 104 19 144 2z m-1174 -66 c0 -12
-7 -34 -15 -50 l-16 -30 -187 0 c-259 0 -360 18 -427 75 -19 15 -10 16 145 8
220 -10 409 -8 440 5 40 17 60 14 60 -8z m1105 -179 c10 -17 -14 -23 -58 -15
-34 5 -38 8 -22 15 28 11 73 11 80 0z"/>
<path d="M7336 8336 c-21 -45 -20 -68 8 -194 13 -59 29 -156 36 -216 7 -60 19
-124 26 -142 8 -18 14 -59 14 -90 0 -42 7 -71 27 -110 l27 -53 65 -5 c188 -16
325 -53 468 -124 l79 -40 2 34 c1 19 3 44 4 57 2 37 -23 166 -43 225 -10 30
-26 95 -34 144 -24 137 -59 221 -119 284 -43 45 -78 67 -216 135 -182 90 -237
113 -291 123 -34 6 -38 4 -53 -28z m250 -271 l112 -35 7 -135 c4 -74 4 -172 0
-216 l-7 -82 -57 6 c-31 3 -78 2 -104 -2 -60 -10 -64 -4 -76 116 -5 48 -19
126 -30 173 -12 47 -24 116 -28 154 l-6 69 39 -6 c21 -4 89 -22 150 -42z m250
-95 c27 -18 35 -30 44 -78 7 -31 21 -93 31 -137 11 -44 22 -116 26 -161 l6
-81 -82 39 -81 40 0 199 c0 141 3 199 11 199 7 0 27 -9 45 -20z"/>
<path d="M7485 8051 c-3 -5 -7 -87 -10 -181 -4 -161 3 -220 25 -220 12 0 22
242 14 329 -6 75 -14 95 -29 72z"/>
<path d="M1832 5123 c-44 -63 -76 -138 -80 -189 -4 -45 -2 -54 12 -54 8 0 22
10 30 23 16 24 76 209 76 232 0 23 -17 18 -38 -12z"/>
<path d="M1545 4679 c-4 -6 15 -59 43 -118 28 -58 79 -167 115 -241 55 -117
137 -244 216 -337 20 -23 71 -32 71 -13 0 6 -27 40 -60 75 -103 111 -181 249
-305 538 -41 96 -64 123 -80 96z"/>
<path d="M6485 4773 c3 -16 19 -43 33 -61 50 -63 64 -93 90 -190 21 -81 25
-121 26 -247 2 -158 13 -208 41 -185 11 9 13 50 11 193 -2 162 -5 189 -25 247
-33 91 -74 167 -122 223 -46 54 -64 60 -54 20z"/>
<path d="M7512 4227 c-34 -37 -28 -54 19 -59 61 -6 75 13 39 52 -15 16 -30 30
-32 30 -3 0 -14 -10 -26 -23z"/>
<path d="M8530 4325 c-21 -25 -8 -50 28 -53 28 -3 32 0 32 20 0 42 -36 62 -60
33z"/>
<path d="M8402 4118 c-16 -16 -15 -60 1 -82 8 -11 23 -17 38 -14 20 2 25 9 27
40 2 28 -2 40 -20 52 -27 19 -31 19 -46 4z"/>
<path d="M8850 4043 c0 -50 26 -119 52 -141 29 -24 29 16 1 86 -15 37 -26 75
-25 85 0 9 -6 17 -14 17 -10 0 -14 -13 -14 -47z"/>
<path d="M8074 3811 c-29 -45 -28 -59 6 -41 25 14 45 59 31 73 -6 6 -19 -6
-37 -32z"/>
<path d="M8299 3733 c-6 -15 -9 -62 -7 -104 4 -59 10 -86 31 -121 26 -45 50
-63 68 -52 16 9 10 29 -23 80 -31 45 -33 55 -33 133 0 90 -15 117 -36 64z"/>
<path d="M2212 2953 c-7 -3 -24 -22 -37 -43 -16 -26 -33 -40 -50 -42 -32 -4
-34 -21 -3 -29 32 -8 75 16 98 54 30 49 27 74 -8 60z"/>
<path d="M1968 2187 c-3 -34 -2 -121 3 -192 4 -72 8 -173 9 -226 0 -103 13
-138 45 -125 14 5 16 13 11 44 -20 112 -26 215 -24 367 2 169 -1 195 -26 195
-9 0 -15 -20 -18 -63z"/>
<path d="M1772 1853 c2 -148 -1 -184 -15 -215 -14 -31 -14 -38 -2 -48 8 -6 18
-9 24 -6 46 29 47 446 1 446 -6 0 -9 -73 -8 -177z"/>
<path d="M2535 1588 c-108 -117 -204 -274 -262 -428 -14 -36 -33 -78 -43 -95
-10 -16 -39 -78 -64 -137 -44 -104 -57 -158 -36 -158 18 0 48 42 54 75 6 30
37 105 116 280 63 139 237 417 272 436 21 11 58 67 58 87 0 28 -32 8 -95 -60z"/>
<path d="M1561 538 c-5 -13 -19 -45 -30 -71 -12 -27 -21 -53 -21 -58 0 -17 26
-9 48 14 21 22 46 113 36 129 -9 15 -25 8 -33 -14z"/>
<path d="M6387 2854 c-12 -12 25 -74 43 -74 18 0 17 31 -1 54 -21 26 -31 31
-42 20z"/>
<path d="M6350 2708 c0 -20 134 -158 153 -158 25 0 21 19 -9 42 -36 29 -23 33
25 9 48 -25 71 -27 71 -6 0 8 -6 15 -14 15 -7 0 -25 9 -39 20 -14 11 -36 20
-49 20 -14 0 -38 14 -58 35 -33 34 -80 48 -80 23z"/>
<path d="M6306 2222 c-18 -30 102 -306 160 -368 16 -17 56 -82 88 -144 59
-113 199 -332 217 -338 13 -5 39 17 39 34 0 7 -18 34 -41 60 -55 64 -148 203
-210 316 -28 51 -65 114 -83 139 -18 26 -57 101 -86 168 -52 119 -72 151 -84
133z"/>
<path d="M6385 1483 c3 -21 19 -83 36 -137 16 -55 29 -109 29 -121 0 -11 7
-30 15 -43 9 -12 23 -57 31 -99 8 -43 37 -134 63 -203 27 -69 53 -143 57 -165
4 -22 15 -50 24 -63 10 -12 26 -45 37 -74 10 -28 31 -65 46 -82 26 -27 30 -28
38 -13 10 17 -10 69 -31 82 -5 3 -17 32 -26 63 -9 31 -21 62 -26 68 -5 7 -17
40 -28 75 -10 35 -55 170 -99 299 -45 129 -91 273 -102 320 -22 87 -41 130
-60 130 -7 0 -9 -13 -4 -37z"/>
<path d="M7950 1371 c0 -21 11 -69 25 -105 14 -37 25 -80 25 -97 0 -16 6 -45
14 -64 8 -18 19 -84 26 -144 13 -131 22 -161 50 -161 11 0 20 3 20 8 -1 24
-73 396 -86 441 -25 88 -55 161 -65 161 -5 0 -9 -17 -9 -39z"/>
<path d="M10648 2709 c-125 -13 -236 -62 -316 -139 -102 -98 -182 -229 -185
-303 -2 -50 18 -60 27 -13 20 103 135 270 231 334 74 49 206 86 305 86 104 0
172 -22 320 -102 103 -56 105 -58 166 -148 83 -123 105 -193 109 -342 2 -117
2 -117 -36 -203 -22 -48 -39 -90 -39 -93 0 -4 9 -2 19 4 45 24 101 199 101
313 -1 212 -143 449 -325 540 -114 56 -245 79 -377 66z"/>
<path d="M10584 2611 c-79 -29 -188 -89 -224 -124 -43 -41 -117 -155 -136
-209 -8 -24 -18 -81 -21 -128 -10 -150 40 -286 148 -404 106 -115 264 -175
433 -163 178 13 303 93 405 262 28 47 36 72 48 168 35 272 -51 448 -274 561
-115 58 -278 73 -379 37z m84 -33 c7 -7 12 -25 12 -41 0 -22 7 -31 34 -42 43
-18 93 -5 137 36 21 20 38 28 50 24 23 -8 24 -18 3 -51 -24 -35 -6 -70 49 -94
54 -25 60 -25 95 5 l30 25 29 -25 28 -25 -39 -33 c-37 -32 -38 -34 -28 -71 21
-76 78 -126 109 -95 17 17 33 2 33 -31 0 -22 -4 -27 -19 -23 -32 8 -72 -37
-78 -87 -6 -54 18 -91 60 -93 31 -2 34 -15 12 -57 -18 -36 -27 -37 -64 -9 -27
20 -30 20 -59 5 -34 -18 -72 -65 -72 -91 0 -9 11 -30 25 -47 24 -28 24 -30 8
-52 l-18 -23 -47 50 -47 50 55 60 c30 34 67 86 82 116 24 49 27 68 27 151 0
86 -3 100 -29 148 -38 67 -102 126 -174 160 -49 23 -70 27 -147 27 -74 0 -98
-4 -137 -23 -69 -34 -136 -99 -193 -186 l-49 -76 -36 35 c-20 19 -42 35 -49
35 -9 0 -11 8 -6 28 10 42 21 46 59 23 42 -26 67 -18 91 29 21 41 19 64 -10
98 -30 36 -31 44 -7 65 17 16 21 15 58 -13 54 -40 91 -39 133 4 32 33 33 35
20 71 -12 31 -11 37 1 45 21 13 54 12 68 -2z m166 -185 c65 -24 148 -100 181
-168 77 -157 15 -324 -151 -406 -60 -30 -68 -31 -138 -25 -118 11 -167 29
-216 82 -90 98 -111 194 -71 325 31 99 101 169 201 200 46 14 144 9 194 -8z
m-504 -3 c0 -5 -5 -10 -11 -10 -5 0 -7 5 -4 10 3 6 8 10 11 10 2 0 4 -4 4 -10z
m-20 -327 c0 -14 -34 -43 -52 -43 -27 0 -23 38 5 43 37 7 47 7 47 0z m488
-407 c1 -44 -9 -55 -55 -56 -22 0 -14 50 12 75 34 35 40 32 43 -19z m-253 4
c3 -5 -1 -10 -10 -10 -9 0 -13 5 -10 10 3 6 8 10 10 10 2 0 7 -4 10 -10z"/>
<path d="M10460 2040 c0 -5 5 -10 10 -10 6 0 10 5 10 10 0 6 -4 10 -10 10 -5
0 -10 -4 -10 -10z"/>
<path d="M10626 9574 c-9 -23 -7 -44 3 -44 11 0 21 49 11 55 -4 3 -11 -2 -14
-11z"/>
<path d="M10334 9210 c-30 -12 -37 -27 -18 -34 9 -3 59 -9 112 -12 89 -6 99
-5 115 13 18 20 17 21 -58 32 -88 13 -122 13 -151 1z"/>
<path d="M9038 5829 c-25 -14 -22 -38 5 -43 12 -3 847 -10 1855 -16 1855 -11
1871 -11 1860 22 -4 12 -508 18 -2263 27 -775 4 -1417 10 -1425 14 -8 3 -23 2
-32 -4z"/>
</g>
</svg>
