<?xml version="1.0" standalone="no"?>
<!DOCTYPE svg PUBLIC "-//W3C//DTD SVG 20010904//EN"
 "http://www.w3.org/TR/2001/REC-SVG-20010904/DTD/svg10.dtd">
<svg version="1.0" xmlns="http://www.w3.org/2000/svg"
 width="1280.000000pt" height="894.000000pt" viewBox="0 0 1280.000000 894.000000"
 preserveAspectRatio="xMidYMid meet">
<g transform="translate(0.000000,894.000000) scale(0.100000,-0.100000)"
fill="#000000" stroke="none">
<path d="M10261 8933 c-18 -8 -2722 -2470 -2742 -2497 -8 -11 -37 -84 -63
-161 -57 -164 -163 -389 -234 -495 -80 -119 -163 -203 -258 -260 -87 -53 -343
-180 -363 -180 -6 0 -309 138 -673 307 -365 168 -913 422 -1218 563 l-555 256
-7 45 c-4 24 -14 101 -23 171 -67 525 -342 1035 -746 1382 -359 309 -767 473
-1224 493 -204 9 -394 -16 -615 -78 -455 -130 -877 -426 -1164 -819 -43 -59
-48 -69 -43 -107 7 -65 63 -128 124 -142 41 -8 1642 -299 1914 -347 l97 -17
248 -451 c137 -248 249 -454 249 -457 0 -6 -334 -308 -706 -640 l-74 -67 -915
154 c-1272 214 -1173 199 -1209 185 -39 -17 -65 -71 -56 -119 12 -68 67 -236
112 -342 291 -686 872 -1146 1574 -1245 133 -19 403 -21 534 -5 385 47 773
208 1065 442 l55 44 1020 -470 c561 -258 1022 -471 1023 -472 2 -1 -13 -18
-35 -37 -21 -19 -328 -292 -683 -608 -355 -316 -914 -814 -1243 -1107 l-598
-533 -117 -35 c-234 -70 -178 -25 -487 -392 -254 -301 -275 -328 -275 -363 0
-34 10 -49 101 -146 121 -129 131 -136 172 -131 21 2 156 86 385 237 l353 234
74 148 74 147 857 764 c472 419 1074 956 1338 1191 265 236 486 431 492 433
14 6 2766 -1263 2782 -1284 6 -9 12 -32 12 -52 0 -163 131 -602 235 -785 12
-22 53 -94 90 -160 90 -158 169 -275 259 -382 326 -390 755 -641 1226 -718
542 -88 1128 77 1605 453 143 113 392 382 443 479 24 44 4 129 -39 173 -23 22
-44 30 -110 40 -76 12 -85 16 -119 52 -33 36 -42 40 -96 44 -32 2 -81 8 -109
14 -27 5 -131 24 -230 40 -99 17 -229 39 -290 50 -60 11 -204 35 -320 55 -115
20 -286 49 -380 66 -93 16 -230 39 -303 51 -73 11 -139 26 -146 32 -13 10
-468 811 -481 846 -4 11 108 116 377 355 210 187 390 346 400 353 15 11 103
-3 550 -83 293 -53 744 -134 1003 -181 258 -46 481 -84 495 -84 49 0 134 70
145 120 12 52 -73 288 -173 484 -325 636 -911 1060 -1572 1136 -140 17 -605 7
-720 -14 -335 -63 -627 -191 -882 -389 -55 -42 -83 -57 -95 -53 -10 4 -350
161 -756 348 -618 286 -735 343 -725 355 23 28 206 143 289 182 113 53 289
112 431 146 64 15 130 35 145 45 15 9 656 553 1424 1208 1019 868 1398 1198
1403 1217 14 56 -43 308 -105 465 -162 408 -552 740 -1034 879 -81 23 -144 33
-164 24z"/>
</g>
</svg>
