<?xml version="1.0" standalone="no"?>
<!DOCTYPE svg PUBLIC "-//W3C//DTD SVG 20010904//EN"
 "http://www.w3.org/TR/2001/REC-SVG-20010904/DTD/svg10.dtd">
<svg version="1.0" xmlns="http://www.w3.org/2000/svg"
 width="225.000000pt" height="225.000000pt" viewBox="0 0 225.000000 225.000000"
 preserveAspectRatio="xMidYMid meet">
<metadata>
Created by potrace 1.15, written by Peter Selinger 2001-2017
</metadata>
<g transform="translate(0.000000,225.000000) scale(0.100000,-0.100000)"
fill="#000000" stroke="none">
<path d="M715 2167 c-44 -18 -110 -49 -147 -70 -66 -37 -209 -144 -223 -167
-5 -7 99 -120 271 -293 l279 -282 -67 -5 c-99 -7 -105 -15 -153 -203 -35 -139
-42 -157 -60 -157 -41 0 -45 -17 -45 -180 0 -146 -1 -156 -21 -168 -26 -17
-22 -54 9 -67 20 -9 22 -16 22 -91 0 -102 10 -114 98 -114 89 0 102 16 102
120 l0 80 344 0 344 0 3 -86 c5 -104 14 -114 104 -114 85 0 95 12 95 118 0 75
2 82 20 82 27 0 44 34 30 60 -6 11 -15 20 -20 20 -6 0 -10 60 -10 148 0 159
-7 184 -53 195 -20 6 -27 23 -61 162 -45 183 -54 195 -145 195 l-56 0 3 50 c5
69 -3 94 -33 108 -17 8 -93 12 -221 12 -238 0 -254 -5 -254 -85 l0 -40 -260
260 c-143 143 -260 263 -260 267 0 5 36 36 79 71 91 71 206 135 319 177 42 16
70 29 62 29 -8 1 -51 -14 -95 -32z m763 -1039 c17 -67 30 -124 28 -125 -2 -2
-175 -6 -385 -10 -301 -5 -381 -4 -381 6 0 11 21 99 51 214 l10 37 323 0 323
0 31 -122z m-683 -263 c16 -15 25 -36 25 -55 0 -19 -9 -40 -25 -55 -15 -16
-36 -25 -55 -25 -19 0 -40 9 -55 25 -16 15 -25 36 -25 55 0 19 9 40 25 55 15
16 36 25 55 25 19 0 40 -9 55 -25z m770 0 c50 -49 15 -135 -55 -135 -19 0 -40
9 -55 25 -16 15 -25 36 -25 55 0 19 9 40 25 55 15 16 36 25 55 25 19 0 40 -9
55 -25z"/>
<path d="M775 1971 c-209 -95 -158 -400 69 -419 69 -6 118 16 152 67 21 33 33
41 57 41 20 0 41 10 59 27 26 25 29 25 46 10 17 -15 19 -15 35 0 15 16 18 16
35 0 17 -15 19 -15 36 1 16 16 18 16 31 -2 14 -18 16 -18 33 -3 17 15 19 15
35 0 15 -16 18 -16 35 0 17 15 19 15 35 0 15 -16 18 -16 35 0 13 12 21 14 29
6 8 -8 17 -8 30 2 36 25 86 70 82 73 -2 1 -32 26 -67 54 l-63 52 -227 -2 -227
-3 -26 41 c-46 71 -139 94 -224 55z"/>
</g>
</svg>
